<svg  viewBox="0 0 28 28"  xmlns="http://www.w3.org/2000/svg">
<path d="M26.4871 8.99163C26.9426 8.53601 26.9426 7.79732 26.4871 7.34171C26.0315 6.8861 25.2927 6.8861 24.8372 7.34171L26.4871 8.99163ZM13.9954 19.8333L13.1705 20.6583C13.6261 21.1139 14.3648 21.1139 14.8204 20.6583L13.9954 19.8333ZM3.15374 7.34171C2.69812 6.8861 1.95943 6.8861 1.50382 7.34171C1.04821 7.79732 1.04821 8.53601 1.50382 8.99163L3.15374 7.34171ZM24.8372 7.34171L13.1705 19.0084L14.8204 20.6583L26.4871 8.99163L24.8372 7.34171ZM14.8204 19.0084L3.15374 7.34171L1.50382 8.99163L13.1705 20.6583L14.8204 19.0084Z" fill="#282828"/>
</svg>
