<svg width="28" height="28" viewBox="0 0 28 28" fill="none" xmlns="http://www.w3.org/2000/svg">
<path fill-rule="evenodd" clip-rule="evenodd" d="M1.99042 2.0917C1.53481 2.54732 1.53481 3.28601 1.99042 3.74163L12.3024 14.0535L1.99015 24.3657C1.53453 24.8214 1.53453 25.56 1.99015 26.0156C2.44576 26.4713 3.18446 26.4713 3.64006 26.0156L13.9523 15.7035L24.2643 26.0155C24.7199 26.4711 25.4586 26.4711 25.9142 26.0155C26.3698 25.5599 26.3698 24.8212 25.9142 24.3656L15.6022 14.0535L25.914 3.7418C26.3696 3.28618 26.3696 2.5475 25.914 2.09188C25.4583 1.63627 24.7197 1.63627 24.264 2.09188L13.9523 12.4036L3.64034 2.0917C3.18472 1.6361 2.44604 1.6361 1.99042 2.0917Z" fill="#282828"/>
</svg>
