<svg width="28" height="28" viewBox="0 0 28 28" fill="none" xmlns="http://www.w3.org/2000/svg">
<path fill-rule="evenodd" clip-rule="evenodd" d="M11.7232 19.922C7.18084 19.922 3.50228 16.2438 3.50228 11.7109C3.50228 7.17818 7.18084 3.49993 11.7232 3.49993C16.2655 3.49993 19.944 7.17818 19.944 11.7109C19.944 14.1418 18.8893 16.3239 17.204 17.831C15.7481 19.1329 13.8308 19.922 11.7232 19.922ZM19.9691 18.293C21.4135 16.4891 22.2773 14.2008 22.2773 11.7109C22.2773 5.88748 17.5521 1.1666 11.7232 1.1666C5.89421 1.1666 1.16895 5.88748 1.16895 11.7109C1.16895 17.5345 5.89421 22.2554 11.7232 22.2554C14.2031 22.2554 16.4832 21.4008 18.2848 19.9705L24.8055 26.4851C25.2698 26.949 26.0228 26.949 26.4871 26.4851C26.9515 26.0211 26.9515 25.269 26.4871 24.805L19.9691 18.293Z" fill="#282828"/>
</svg>
