<svg width="28" height="28" viewBox="0 0 28 28" fill="none" xmlns="http://www.w3.org/2000/svg">
<path fill-rule="evenodd" clip-rule="evenodd" d="M10.2667 1.1666C9.10687 1.1666 8.16667 2.1068 8.16667 3.2666V4.6666H4.66667C4.02234 4.6666 3.5 5.18894 3.5 5.83326V6.99993C3.5 7.64426 4.02234 8.1666 4.66667 8.1666H23.3333C23.9777 8.1666 24.5 7.64426 24.5 6.99993V5.83326C24.5 5.18894 23.9777 4.6666 23.3333 4.6666H19.8333V3.2666C19.8333 2.1068 18.8931 1.1666 17.7333 1.1666H10.2667ZM17.5 4.6666V3.49993H10.5V4.6666H17.5Z" fill="#282828"/>
<path fill-rule="evenodd" clip-rule="evenodd" d="M5.99987 9.3334C5.29428 9.3334 4.75018 9.95486 4.84344 10.6543L6.86565 25.821C6.94293 26.4006 7.43736 26.8334 8.02209 26.8334H19.9793C20.564 26.8334 21.0584 26.4006 21.1357 25.821L23.1578 10.6543C23.2512 9.95486 22.707 9.3334 22.0014 9.3334H5.99987ZM8.86674 11.6667C8.17994 11.6667 7.64328 12.2598 7.71163 12.9431L8.64612 22.2881C8.70546 22.8814 9.20483 23.3334 9.80123 23.3334C10.488 23.3334 11.0247 22.7404 10.9563 22.0571L10.0219 12.7121C9.96251 12.1187 9.46314 11.6667 8.86674 11.6667ZM12.834 12.8334C12.834 12.1891 13.3563 11.6667 14.0007 11.6667C14.645 11.6667 15.1673 12.1891 15.1673 12.8334V22.1667C15.1673 22.8111 14.645 23.3334 14.0007 23.3334C13.3563 23.3334 12.834 22.8111 12.834 22.1667V12.8334ZM19.1346 11.6667C18.5382 11.6667 18.0387 12.1187 17.9795 12.7121L17.045 22.0571C16.9766 22.7404 17.5133 23.3334 18.2001 23.3334C18.7965 23.3334 19.2958 22.8814 19.3552 22.2881L20.2897 12.9431C20.3581 12.2598 19.8214 11.6667 19.1346 11.6667Z" fill="#282828"/>
</svg>
