<svg width="28" height="28" viewBox="0 0 28 28" fill="none" xmlns="http://www.w3.org/2000/svg">
<path fill-rule="evenodd" clip-rule="evenodd" d="M24.4954 13.9999C24.4954 19.799 19.7945 24.4999 13.9954 24.4999C8.19646 24.4999 3.49544 19.799 3.49544 13.9999C3.49544 8.20094 8.19646 3.49993 13.9954 3.49993C19.7945 3.49993 24.4954 8.20094 24.4954 13.9999ZM26.8288 13.9999C26.8288 21.0875 21.0831 26.8333 13.9954 26.8333C6.90779 26.8333 1.16211 21.0875 1.16211 13.9999C1.16211 6.91228 6.90779 1.1666 13.9954 1.1666C21.0831 1.1666 26.8288 6.91228 26.8288 13.9999ZM9.32878 12.8333C10.6174 12.8333 11.6621 11.7886 11.6621 10.4999C11.6621 9.21126 10.6174 8.16659 9.32878 8.16659C8.04011 8.16659 6.99544 9.21126 6.99544 10.4999C6.99544 11.7886 8.04011 12.8333 9.32878 12.8333ZM20.9954 10.4999C20.9954 11.7886 19.9508 12.8333 18.6621 12.8333C17.3734 12.8333 16.3288 11.7886 16.3288 10.4999C16.3288 9.21126 17.3734 8.16659 18.6621 8.16659C19.9508 8.16659 20.9954 9.21126 20.9954 10.4999ZM10.4505 20.1537C10.9556 18.3862 12.4455 17.4999 13.9954 17.4999C15.5454 17.4999 17.0353 18.3862 17.5404 20.1537C17.7173 20.7734 18.3631 21.132 18.9826 20.955C19.6022 20.778 19.9608 20.1323 19.7839 19.5128C18.9555 16.6136 16.4456 15.1666 13.9954 15.1666C11.5454 15.1666 9.03532 16.6136 8.207 19.5128C8.02998 20.1323 8.38872 20.778 9.00827 20.955C9.6278 21.132 10.2735 20.7734 10.4505 20.1537Z" fill="#282828"/>
</svg>
