<svg width="28" height="28" viewBox="0 0 28 28" fill="none" xmlns="http://www.w3.org/2000/svg">
<path fill-rule="evenodd" clip-rule="evenodd" d="M3.49544 19.2501V6.41674H15.1621V9.91674V19.2501H9.91232C9.3802 18.5417 8.533 18.0834 7.57878 18.0834C6.62455 18.0834 5.77735 18.5417 5.24523 19.2501H3.49544ZM4.72045 21.5834H2.32878C1.68445 21.5834 1.16211 21.0611 1.16211 20.4167V5.25007C1.16211 4.60574 1.68445 4.0834 2.32878 4.0834H16.3288C16.9731 4.0834 17.4954 4.60574 17.4954 5.25007V8.75007H20.4793C20.8081 8.75007 21.1214 8.88873 21.3426 9.13196L23.9121 11.9584L26.5253 14.833C26.7206 15.0477 26.8288 15.3275 26.8288 15.6178V20.4167C26.8288 21.0611 26.3065 21.5834 25.6621 21.5834H23.8538C23.5836 22.9147 22.4065 23.9167 20.9954 23.9167C19.5844 23.9167 18.4073 22.9147 18.1371 21.5834H16.3288H10.4371C10.1669 22.9147 8.98984 23.9167 7.57878 23.9167C6.16772 23.9167 4.99069 22.9147 4.72045 21.5834ZM17.4954 19.2501H18.6619C19.194 18.5417 20.0412 18.0834 20.9954 18.0834C21.9497 18.0834 22.7969 18.5417 23.329 19.2501H24.4954V16.0688L22.1856 13.5279L19.9633 11.0834H17.4954V19.2501Z" fill="#282828"/>
</svg>
