<svg width="28" height="28" viewBox="0 0 28 28" fill="none" xmlns="http://www.w3.org/2000/svg">
<path fill-rule="evenodd" clip-rule="evenodd" d="M16.0243 3.54702C15.1286 1.979 12.8677 1.979 11.9721 3.54702L11.866 3.73265C11.3004 4.72298 10.1017 5.15926 9.03181 4.76424L8.83126 4.6902C7.13725 4.06474 5.40532 5.518 5.72711 7.2949L5.7652 7.50525C5.96844 8.6275 5.33063 9.73221 4.25712 10.1173L4.0559 10.1895C2.35617 10.7993 1.96357 13.0258 3.35224 14.1802L3.51664 14.3168C4.39369 15.0459 4.6152 16.3021 4.04039 17.2872L3.93265 17.4718C3.02253 19.0314 4.15296 20.9895 5.95874 20.9811L6.17252 20.9801C7.31301 20.9749 8.29018 21.7948 8.48304 22.9189L8.51919 23.1296C8.82454 24.9093 10.9491 25.6826 12.327 24.5155L12.4901 24.3773C13.3604 23.6402 14.636 23.6402 15.5063 24.3773L15.6695 24.5155C17.0473 25.6826 19.1719 24.9093 19.4772 23.1296L19.5134 22.9189C19.7063 21.7948 20.6835 20.9749 21.8239 20.9801L22.0377 20.9811C23.8435 20.9895 24.9739 19.0314 24.0638 17.4718L23.9561 17.2872C23.3813 16.3021 23.6027 15.0459 24.4798 14.3168L24.6442 14.1801C26.0329 13.0258 25.6403 10.7993 23.9406 10.1895L23.7393 10.1173C22.6657 9.73221 22.0279 8.6275 22.2312 7.50525L22.2693 7.2949C22.5911 5.518 20.8592 4.06474 19.1652 4.6902L18.9646 4.76424C17.8947 5.15926 16.696 4.72297 16.1303 3.73265L16.0243 3.54702ZM13.9987 18.6667C16.576 18.6667 18.6654 16.5774 18.6654 14.0001C18.6654 11.4227 16.576 9.33341 13.9987 9.33341C11.4214 9.33341 9.33203 11.4227 9.33203 14.0001C9.33203 16.5774 11.4214 18.6667 13.9987 18.6667Z" fill="#282828"/>
</svg>
