<svg width="28" height="28" viewBox="0 0 28 28" fill="none" xmlns="http://www.w3.org/2000/svg">
<path fill-rule="evenodd" clip-rule="evenodd" d="M3.49544 14.0001C3.49544 8.84541 7.67412 4.66674 12.8288 4.66674C14.5307 4.66674 16.123 5.12121 17.4946 5.91466C18.0523 6.23729 18.7661 6.04671 19.0886 5.48897C19.4112 4.93122 19.2207 4.21755 18.6629 3.89491C16.9457 2.90156 14.9519 2.3334 12.8288 2.3334C6.38545 2.3334 1.16211 7.55675 1.16211 14.0001C1.16211 20.4433 6.38545 25.6667 12.8288 25.6667C19.272 25.6667 24.4954 20.4433 24.4954 14.0001C24.4954 13.3557 23.9731 12.8334 23.3288 12.8334C22.6844 12.8334 22.1621 13.3557 22.1621 14.0001C22.1621 19.1548 17.9835 23.3334 12.8288 23.3334C7.67412 23.3334 3.49544 19.1548 3.49544 14.0001ZM26.4944 5.48423C26.9459 5.02453 26.9393 4.28587 26.4796 3.83438C26.0199 3.38289 25.2812 3.38955 24.8298 3.84924L14.2046 14.6675L10.162 10.5431C9.71093 10.0829 8.97228 10.0755 8.51212 10.5265C8.05198 10.9776 8.04457 11.7162 8.49559 12.1763L13.3706 17.1501C13.5899 17.3737 13.89 17.5 14.2032 17.5001C14.5165 17.5002 14.8167 17.3744 15.0361 17.1509L26.4944 5.48423Z" fill="#282828"/>
</svg>
