<svg width="28" height="28" viewBox="0 0 28 28" fill="none" xmlns="http://www.w3.org/2000/svg">
<path fill-rule="evenodd" clip-rule="evenodd" d="M3.49544 6.41674V8.75007H24.4954V6.41674H3.49544ZM3.49544 21.5834V12.2501H24.4954V21.5834H3.49544ZM2.32878 4.0834C1.68445 4.0834 1.16211 4.60574 1.16211 5.25007V22.7501C1.16211 23.3944 1.68445 23.9167 2.32878 23.9167H25.6621C26.3065 23.9167 26.8288 23.3944 26.8288 22.7501V5.25007C26.8288 4.60574 26.3065 4.0834 25.6621 4.0834H2.32878ZM6.41211 15.7501C6.08995 15.7501 5.82878 16.0113 5.82878 16.3334V17.5001C5.82878 17.8222 6.08995 18.0834 6.41211 18.0834H8.74544C9.06761 18.0834 9.32878 17.8222 9.32878 17.5001V16.3334C9.32878 16.0113 9.06761 15.7501 8.74544 15.7501H6.41211ZM10.4954 16.3334C10.4954 16.0113 10.7566 15.7501 11.0788 15.7501H13.4121C13.7342 15.7501 13.9954 16.0113 13.9954 16.3334V17.5001C13.9954 17.8222 13.7342 18.0834 13.4121 18.0834H11.0788C10.7566 18.0834 10.4954 17.8222 10.4954 17.5001V16.3334ZM18.0788 15.7501C17.7567 15.7501 17.4954 16.0113 17.4954 16.3334V17.5001C17.4954 17.8222 17.7567 18.0834 18.0788 18.0834H21.5788C21.9009 18.0834 22.1621 17.8222 22.1621 17.5001V16.3334C22.1621 16.0113 21.9009 15.7501 21.5788 15.7501H18.0788Z" fill="#282828"/>
</svg>
