<svg width="28" height="28" viewBox="0 0 28 28" fill="none" xmlns="http://www.w3.org/2000/svg">
<path d="M9.37731 22.3915C9.83293 22.8471 10.5716 22.8471 11.0272 22.3915C11.4828 21.9359 11.4828 21.1972 11.0272 20.7416L9.37731 22.3915ZM2.33561 13.6999L1.51065 12.8749C1.05504 13.3306 1.05504 14.0692 1.51065 14.5249L2.33561 13.6999ZM11.0272 6.65822C11.4828 6.20261 11.4828 5.46392 11.0272 5.0083C10.5716 4.55269 9.83293 4.55269 9.37731 5.0083L11.0272 6.65822ZM25.6698 14.8665C26.314 14.8665 26.8364 14.3442 26.8364 13.6999C26.8364 13.0556 26.314 12.5332 25.6698 12.5332V14.8665ZM11.0272 20.7416L3.16057 12.8749L1.51065 14.5249L9.37731 22.3915L11.0272 20.7416ZM3.16057 14.5249L11.0272 6.65822L9.37731 5.0083L1.51065 12.8749L3.16057 14.5249ZM2.33561 14.8665H25.6698V12.5332H2.33561V14.8665Z" fill="#282828"/>
</svg>
