<svg width="23" height="23" viewBox="0 0 23 23" fill="none" xmlns="http://www.w3.org/2000/svg">
<path fill-rule="evenodd" clip-rule="evenodd" d="M11.5 23C17.8513 23 23 17.8513 23 11.5C23 5.14873 17.8513 0 11.5 0C5.14873 0 0 5.14873 0 11.5C0 17.8513 5.14873 23 11.5 23ZM10.5344 17.8413L11.5004 18.8L12.4664 17.8413C16.0544 14.6913 18.4004 12.5685 18.4004 9.96631C18.4004 7.84348 16.7444 6.2 14.6054 6.2C13.4324 6.2 12.2594 6.74783 11.5004 7.63805C10.7414 6.74783 9.5684 6.2 8.3954 6.2C6.2564 6.2 4.6004 7.84348 4.6004 9.96631C4.6004 12.5685 6.9464 14.6913 10.5344 17.8413Z" fill="url(#paint0_linear)"/>
<defs>
<linearGradient id="paint0_linear" x1="-6.60453e-08" y1="11.5742" x2="23" y2="11.5742" gradientUnits="userSpaceOnUse">
<stop stop-color="#FFCA41"/>
<stop offset="1" stop-color="#FFDA55"/>
</linearGradient>
</defs>
</svg>
