<svg width="60" height="21" viewBox="0 0 60 21" fill="none" xmlns="http://www.w3.org/2000/svg">
<path d="M50.0359 0.501465C47.386 0.502165 44.9706 1.49477 43.1502 3.12507C41.3283 1.49687 38.9143 0.503565 36.2673 0.503565C36.2453 0.503565 36.2227 0.503565 36.2014 0.503565C30.5645 0.539965 26 5.07177 26 10.6501C26 16.2508 30.5999 20.7959 36.2666 20.7959C38.9136 20.7959 41.3276 19.804 43.1488 18.1744C42.7684 17.8349 42.4241 17.459 42.099 17.0656H44.219C43.8996 17.4527 43.5511 17.8153 43.1764 18.1527H43.175C43.1665 18.1618 43.1572 18.1667 43.1488 18.1744C44.9713 19.8054 47.3881 20.8001 50.0394 20.7994C55.7096 20.7973 60.0014 16.248 60 10.6452C60.0007 5.04237 55.7061 0.500065 50.0359 0.501465ZM42.2166 4.17297H44.168C44.4556 4.51737 44.7227 4.87997 44.9649 5.25937H41.4835C41.708 4.89677 41.9545 4.52367 42.2166 4.17297ZM40.8771 6.32477H45.5571C45.7235 6.67617 45.8709 7.03947 45.9998 7.41187H40.3225C40.3792 7.30687 40.5775 6.88407 40.8771 6.32477ZM30.1912 13.2345L30.8138 9.35507L29.4092 13.2345H28.6563L28.5585 9.35507L27.8934 13.2345H26.8387L27.7128 8.08947H29.3079L29.3639 11.2465L30.4413 8.08947H32.1717L31.3097 13.2345H30.1912ZM33.9206 13.2261L33.9567 12.8152C33.9397 12.8173 33.6068 13.3115 32.8354 13.3115C32.4317 13.3115 31.78 13.0938 31.78 12.1474C31.78 10.9441 32.7731 10.5451 33.7187 10.5451C33.8675 10.5451 34.1883 10.5717 34.1883 10.5717C34.1883 10.5717 34.2245 10.4982 34.2245 10.2994C34.2245 9.97246 33.927 9.92766 33.5197 9.92766C32.8021 9.92766 32.3283 10.1174 32.3283 10.1174L32.4869 9.18637C32.4869 9.18637 33.0621 8.94837 33.8108 8.94837C34.1983 8.94837 35.3125 8.98897 35.3125 10.2511L34.8832 13.2261H33.9206ZM37.9885 11.9157C37.9885 13.3514 36.5811 13.2898 36.3353 13.2898C35.418 13.2898 35.1347 13.1645 35.1085 13.1575L35.2544 12.2125C35.2558 12.2041 35.7148 12.377 36.2255 12.377C36.5202 12.377 36.9027 12.3483 36.9027 12.0004C36.9027 11.4796 35.5342 11.6042 35.5342 10.3673C35.5342 9.27597 36.3544 8.95677 37.1633 8.95677C37.7881 8.95677 38.172 9.04147 38.172 9.04147L38.0339 9.99487C38.0339 9.99487 37.441 9.94657 37.2873 9.94657C36.8984 9.94657 36.6866 10.0306 36.6866 10.2994C36.6859 10.8398 37.9885 10.5752 37.9885 11.9157ZM39.6786 12.2923C39.7757 12.2923 39.8855 12.2594 39.9605 12.2594L39.8238 13.1771C39.714 13.2072 39.4031 13.3164 39.0043 13.3192C38.495 13.3234 38.133 13.042 38.133 12.4036C38.133 11.9752 38.7543 8.44507 38.7783 8.42197H39.8713L39.7601 9.05337H40.3055L40.166 10.0705H39.5872L39.2798 11.9444C39.2565 12.0935 39.2983 12.2923 39.6786 12.2923ZM42.0827 8.93437C43.2826 8.93437 43.6418 9.80237 43.6418 10.5143C43.6418 10.7992 43.4973 11.4992 43.4973 11.4992H41.2759C41.2759 11.4992 41.0705 12.3637 42.2442 12.3637C42.7946 12.3637 43.4052 12.0977 43.4052 12.0977L43.2125 13.1386C43.2125 13.1386 42.8598 13.3164 42.0579 13.3164C41.1888 13.3164 40.1695 12.9531 40.1695 11.4271C40.1702 10.1048 40.9834 8.93437 42.0827 8.93437ZM44.9777 16.0205H41.3354C41.1137 15.6705 40.9069 15.3114 40.7291 14.9341H45.5762C45.3977 15.3093 45.198 15.6719 44.9777 16.0205ZM44.7333 13.2422H43.6113L44.2934 9.05477H45.3113L45.2135 9.66167C45.2135 9.66167 45.5762 9.00156 46.0657 9.00156C46.208 9.00156 46.2768 9.01557 46.2768 9.01557C46.1315 9.30817 46.0033 9.57627 45.8702 10.2686C45.1108 10.0026 45.0528 11.4537 44.7333 13.2422ZM49.0081 13.1771C49.0081 13.1771 48.4202 13.3255 48.0518 13.3255C46.7471 13.3255 46.0848 12.4358 46.0848 11.0883C46.0848 9.05617 47.3123 7.97397 48.5739 7.97397C49.1441 7.97397 49.805 8.23856 49.805 8.23856L49.6265 9.38307C49.6265 9.38307 49.1795 9.07437 48.6235 9.07437C47.8797 9.07437 47.2125 9.77577 47.2125 11.0505C47.2125 11.6784 47.5234 12.2636 48.2998 12.2636C48.6688 12.2636 49.2036 11.9983 49.2036 11.9983L49.0081 13.1771ZM51.6395 13.2282L51.6764 12.8145C51.6587 12.8166 51.3258 13.3108 50.5551 13.3108C50.1513 13.3108 49.4997 13.0931 49.4997 12.1467C49.4997 10.9434 50.4928 10.5444 51.4377 10.5444C51.5864 10.5444 51.908 10.571 51.908 10.571C51.908 10.571 51.9448 10.4982 51.9448 10.2994C51.9448 9.97246 51.6473 9.92766 51.2393 9.92766C50.5218 9.92766 50.0486 10.1174 50.0486 10.1174L50.2073 9.18637C50.2073 9.18637 50.7825 8.94837 51.5319 8.94837C51.9186 8.94837 53.0335 8.98897 53.0328 10.2511L52.6036 13.2261C52.6029 13.2282 51.6395 13.2282 51.6395 13.2282ZM53.9112 13.2422H52.7892L53.4713 9.05477H54.4899L54.3921 9.66167C54.3921 9.66167 54.7555 9.00156 55.245 9.00156C55.3873 9.00156 55.4553 9.01557 55.4553 9.01557C55.3108 9.30817 55.1812 9.57627 55.0487 10.2686C54.2887 10.0026 54.2306 11.4537 53.9112 13.2422ZM57.2609 13.231L57.3083 12.8453C57.3083 12.8453 56.9457 13.2975 56.2898 13.2975C55.381 13.2975 54.9354 12.4302 54.9354 11.544C54.9354 10.1734 55.7698 8.97847 56.7714 8.97847C57.416 8.97987 57.8275 9.54197 57.8275 9.54197L58.0641 8.09647L59.1599 8.09437L58.3241 13.231H57.2609ZM59.4227 13.0861C59.3937 13.1379 59.3526 13.1778 59.3002 13.2086C59.2485 13.2373 59.1932 13.252 59.1351 13.252C59.0785 13.252 59.0239 13.2373 58.9715 13.2086C58.9191 13.1778 58.878 13.1379 58.849 13.0861C58.8192 13.0336 58.805 12.9804 58.805 12.9237C58.805 12.8663 58.8199 12.8117 58.849 12.7599C58.878 12.7081 58.9212 12.6661 58.9729 12.6381C59.0268 12.6094 59.0799 12.5947 59.1351 12.5947C59.1918 12.5947 59.2456 12.6094 59.298 12.6381C59.3519 12.6668 59.393 12.7067 59.4227 12.7599C59.4532 12.8124 59.4666 12.867 59.4666 12.9237C59.4666 12.9804 59.4525 13.0343 59.4227 13.0861Z" fill="#282828"/>
<path d="M59.0413 13.9269C59.0342 13.9239 59.0279 13.9191 59.0167 13.9165C59.0055 13.9139 58.9879 13.9126 58.9605 13.9126H58.8945V13.9776H58.9647C58.9977 13.9776 59.0195 13.9759 59.0321 13.9685C59.0441 13.9625 59.0497 13.9551 59.0497 13.9447C59.0497 13.9377 59.0469 13.933 59.0413 13.9269Z" fill="#282828"/>
<path d="M59.2679 13.888C59.2377 13.8542 59.1963 13.8303 59.1436 13.8125C59.091 13.7948 59.0376 13.7856 58.9829 13.7856C58.9267 13.7856 58.8733 13.7948 58.8214 13.8125C58.7694 13.8303 58.7266 13.855 58.6978 13.888C58.6676 13.9201 58.6543 13.9539 58.6543 13.9886C58.6543 14.0233 58.669 14.0575 58.6978 14.0892C58.728 14.1213 58.7687 14.1473 58.82 14.1651C58.8719 14.1829 58.9267 14.192 58.9843 14.192C59.0404 14.192 59.0952 14.1829 59.1464 14.1651C59.1977 14.1473 59.2391 14.1213 59.2679 14.0892C59.2974 14.0575 59.3114 14.0237 59.3114 13.9886C59.3114 13.9535 59.2967 13.9196 59.2679 13.888ZM59.0657 14.1013L59.0348 14.0671C59.0102 14.0402 58.9899 14.0224 58.9744 14.0155C58.9646 14.0111 58.9492 14.0077 58.9295 14.0077H58.8965V14.1009H58.8389V13.8819H58.9611C59.0032 13.8819 59.0334 13.8841 59.0503 13.8884C59.0692 13.8928 59.0854 13.8988 59.0952 13.9097C59.1064 13.9196 59.1113 13.9305 59.1113 13.9418C59.1113 13.9578 59.1015 13.9712 59.084 13.9838C59.0657 13.9951 59.0404 14.0025 59.0102 14.0038C59.0229 14.0064 59.0327 14.0107 59.0404 14.0155C59.0552 14.0241 59.072 14.0385 59.0931 14.0584L59.1366 14.1013H59.0657Z" fill="#282828"/>
<path d="M33.738 10.9321C32.944 10.9321 32.7832 11.1524 32.7832 11.3358C32.7832 11.4304 32.871 11.5882 33.2073 11.5882C33.8595 11.5882 33.995 11.06 33.9739 10.9477C33.943 10.9438 33.9234 10.9326 33.738 10.9321Z" fill="#282828"/>
<path d="M41.9444 10.0361C41.354 10.0361 41.2402 10.4511 41.2402 10.4949H42.4429C42.4429 10.4615 42.5559 10.0361 41.9444 10.0361Z" fill="#282828"/>
<path d="M56.687 10.1084C56.2103 10.1084 55.8333 10.4501 55.834 10.9692C55.834 11.2857 56.0165 11.4887 56.4069 11.4887C56.9938 11.4887 57.2767 11.0156 57.2767 10.663C57.2767 10.274 57.0767 10.1084 56.687 10.1084Z" fill="#282828"/>
<path d="M59.0788 11.8242C59.0542 11.7973 59.0198 11.7765 58.9763 11.7613C58.9327 11.7461 58.8885 11.7388 58.8422 11.7388C58.7972 11.7388 58.7516 11.7466 58.7081 11.7613C58.6645 11.7752 58.6301 11.7969 58.6056 11.8242C58.581 11.8515 58.5684 11.8806 58.5684 11.9088C58.5684 11.9378 58.581 11.9664 58.6042 11.9929C58.6301 12.0198 58.6631 12.0401 58.7067 12.0562C58.7502 12.0709 58.7951 12.0796 58.8422 12.0796C58.8892 12.0796 58.9355 12.0709 58.9777 12.0562C59.0212 12.041 59.0549 12.0202 59.0802 11.9929C59.1047 11.966 59.116 11.9378 59.116 11.9088C59.116 11.8801 59.1033 11.8515 59.0788 11.8242ZM58.9264 12.0202L58.8948 11.9864C58.8703 11.9591 58.8506 11.9417 58.8358 11.9352C58.8239 11.9296 58.8099 11.927 58.7895 11.927H58.7572V12.0198H58.6982V11.8012H58.8211C58.8625 11.8012 58.8934 11.8034 58.911 11.8082C58.9285 11.8121 58.944 11.8194 58.9559 11.829C58.9678 11.8385 58.9721 11.8493 58.9721 11.8611C58.9721 11.8771 58.9622 11.8905 58.944 11.9027C58.9257 11.9153 58.9004 11.9205 58.871 11.9226C58.885 11.9261 58.8941 11.93 58.9011 11.9339C58.9159 11.943 58.9327 11.956 58.9531 11.9768L58.9966 12.0202H58.9264Z" fill="#282828"/>
<path d="M51.3025 10.9321C50.5084 10.9321 50.3477 11.1524 50.3477 11.3358C50.3477 11.4304 50.4347 11.5882 50.7717 11.5882C51.4239 11.5882 51.5587 11.06 51.5384 10.9477C51.5068 10.9438 51.4871 10.9326 51.3025 10.9321Z" fill="#282828"/>
<path d="M58.9012 11.8462C58.8956 11.8419 58.8879 11.8384 58.8773 11.8354C58.8654 11.8332 58.8478 11.8311 58.8197 11.8311V11.8315H58.7559V11.8974H58.8254C58.8584 11.8974 58.8801 11.8948 58.8935 11.8883C58.904 11.8818 58.9103 11.8735 58.9103 11.864C58.9103 11.8566 58.9075 11.8523 58.9012 11.8462Z" fill="#282828"/>
</svg>
