<svg width="60" height="21" viewBox="0 0 60 21" fill="none" xmlns="http://www.w3.org/2000/svg">
<g clip-path="url(#clip0)">
<path d="M24.0259 1.57205L20.9766 19.4664H25.8534L28.9052 1.57205H24.0259Z" fill="#282828"/>
<path d="M16.8854 1.59074L12.1089 13.7942L11.5996 11.9516C10.6576 9.73139 7.98336 6.54286 4.84375 4.53341L9.21135 19.4563L14.3717 19.4475L22.052 1.58698L16.8854 1.59074Z" fill="#282828"/>
<path d="M9.74871 2.87349C9.46523 1.78347 8.64364 1.45859 7.62387 1.41971H0.0627169L0 1.77594C5.8841 3.20338 9.77756 6.64277 11.3932 10.7783L9.74871 2.87349Z" fill="#282828"/>
<path d="M38.7904 5.00062C40.386 4.97553 41.5425 5.32424 42.4406 5.68549L42.8808 5.89246L43.5406 2.01404C42.5748 1.65154 41.0608 1.2627 39.1718 1.2627C34.3526 1.2627 30.9558 3.68984 30.9295 7.16812C30.8981 9.73825 33.3491 11.1732 35.2005 12.0299C37.1009 12.908 37.7381 13.4661 37.7293 14.2501C37.7142 15.448 36.214 15.9974 34.8129 15.9974C32.8599 15.9974 31.8226 15.7277 30.2208 15.0604L29.5924 14.7744L28.9062 18.7795C30.0477 19.28 32.1537 19.7102 34.3401 19.7328C39.4665 19.7328 42.7981 17.3345 42.8332 13.6179C42.8545 11.5846 41.5538 10.033 38.7353 8.75987C37.0294 7.9295 35.9857 7.37759 35.9958 6.53969C35.9958 5.79587 36.8813 5.00062 38.7904 5.00062Z" fill="#282828"/>
<path d="M56.0546 1.59164H52.2866C51.1163 1.59164 50.2458 1.91025 49.7315 3.07678L42.4902 19.476H47.6117C47.6117 19.476 48.4471 17.2709 48.6365 16.7879C49.1972 16.7879 54.1731 16.7955 54.8818 16.7955C55.0273 17.4201 55.4764 19.476 55.4764 19.476H60.0008L56.0546 1.59164ZM50.0401 13.1253C50.4415 12.098 51.9831 8.12424 51.9831 8.12424C51.9567 8.17315 52.3807 7.08941 52.6328 6.41583L52.9614 7.95866C52.9614 7.95866 53.8959 12.2309 54.0916 13.1253H50.0401Z" fill="#282828"/>
</g>
<defs>
<clipPath id="clip0">
<rect width="60" height="21" fill="white"/>
</clipPath>
</defs>
</svg>
