<svg width="508" height="136" viewBox="0 0 508 136" fill="none" xmlns="http://www.w3.org/2000/svg">
<path d="M375.477 0.717896C375.477 1.11301 375.599 1.36057 375.749 1.26804C375.898 1.17549 376.208 1.54701 376.436 2.09363C376.676 2.67026 377.048 3.08748 377.32 3.08748C377.691 3.08748 377.721 3.17006 377.463 3.48128C377.212 3.78378 377.22 3.90334 377.499 3.99707C377.784 4.09305 377.771 4.22841 377.44 4.63147C377.12 5.02193 377.103 5.17195 377.37 5.26195C377.563 5.3269 377.721 5.50331 377.721 5.65396C377.721 5.8046 377.596 5.85068 377.443 5.75635C377.284 5.658 377.237 5.77068 377.333 6.02049C377.425 6.26012 377.356 6.45618 377.18 6.45618C376.946 6.45618 376.941 6.60849 377.16 7.01761C377.401 7.46857 377.373 7.57906 377.018 7.57906C376.661 7.57906 376.644 7.65126 376.928 7.95538C377.291 8.34444 377.996 7.99657 377.904 7.47379C377.88 7.33868 378.009 7.17357 378.189 7.10686C378.405 7.02707 378.462 7.19821 378.355 7.60692C378.266 7.94868 378.308 8.16119 378.448 8.07917C378.588 7.99715 378.955 8.02296 379.263 8.13654C379.708 8.30029 379.577 8.3853 378.632 8.54716C377.889 8.67446 377.44 8.90051 377.44 9.14771C377.44 9.36573 377.195 9.54411 376.895 9.54411C376.595 9.54411 376.177 9.79082 375.966 10.0924C375.588 10.633 374.16 11.3707 373.697 11.2646C373.566 11.2346 372.745 11.3903 371.874 11.6105C371.002 11.8307 369.499 12.0999 368.535 12.2087C367.571 12.3176 366.711 12.5205 366.625 12.6597C366.54 12.7989 366.193 12.9156 365.855 12.9191C365.517 12.9226 364.483 13.2987 363.557 13.755C362.632 14.2112 361.661 14.5874 361.401 14.5908C361.14 14.5944 360.848 14.7234 360.753 14.8778C360.658 15.0322 360.722 15.1586 360.896 15.1586C361.285 15.1586 361.145 16.4141 360.753 16.4414C360.599 16.4521 359.919 16.6194 359.243 16.8132C358.567 17.007 357.705 17.0882 357.329 16.9936C356.952 16.8991 356.244 16.9454 355.754 17.0967C355.264 17.2479 354.159 17.5096 353.298 17.6782C350.936 18.1409 349.675 18.5274 349.675 18.7885C349.675 19.0591 364.062 18.8703 367.624 18.5529C369.501 18.3857 370.217 18.4314 370.99 18.7677C371.53 19.0027 372.034 19.2132 372.111 19.2355C372.189 19.2579 372.621 19.4286 373.071 19.615C373.522 19.8013 374.09 19.8762 374.333 19.7813C374.577 19.6865 378.31 19.5636 382.629 19.5081C386.948 19.4527 391.049 19.2816 391.743 19.1278C392.438 18.9741 394.518 18.7016 396.366 18.5224C398.214 18.3431 399.968 18.0671 400.263 17.909C400.558 17.7509 401.416 17.6808 402.17 17.7533C402.923 17.8257 403.608 17.7748 403.691 17.6401C403.774 17.5054 403.959 17.4679 404.103 17.5567C404.247 17.6455 404.364 17.5845 404.364 17.4209C404.364 17.2574 404.459 17.1487 404.574 17.1794C405.041 17.3029 407.449 16.7922 407.449 16.5697C407.449 16.2957 409.568 15.8402 410.369 15.942C410.663 15.9794 411.142 15.7553 411.431 15.444C411.721 15.1326 412.174 14.8629 412.438 14.8447C412.702 14.8265 413.675 14.7843 414.601 14.751C415.526 14.7177 416.788 14.5446 417.405 14.3664C418.022 14.1881 419.004 13.9712 419.587 13.8844C420.169 13.7976 420.578 13.6157 420.494 13.4803C420.233 13.0575 420.856 12.9467 425.729 12.5501C425.988 12.529 426.177 12.3921 426.15 12.2459C426.122 12.0996 426.352 11.9056 426.66 11.8148C426.969 11.7239 427.54 11.4326 427.929 11.1674C428.439 10.8206 429.501 10.6346 431.716 10.5047C433.409 10.4054 435.085 10.3373 435.442 10.3535C435.799 10.3696 436.478 10.1822 436.952 9.93701C437.441 9.68378 437.888 9.60241 437.986 9.74866C438.228 10.1077 439.215 10.4526 438.999 10.1024C438.771 9.73315 439.044 9.75205 439.79 10.1572C441.297 10.9749 448.433 10.3534 449.177 9.33951C449.407 9.02563 449.433 8.8139 449.247 8.75198C449.087 8.69874 448.957 8.54333 448.957 8.40664C448.957 8.26995 449.133 8.22594 449.349 8.30882C449.565 8.3917 449.825 8.32458 449.927 8.15965C450.199 7.71921 448.518 7.78308 447.611 8.24767C447.194 8.46101 446.285 8.72856 445.591 8.84222C444.897 8.95589 444.108 9.08988 443.838 9.14001C443.569 9.19016 443.348 9.0657 443.348 8.86345C443.348 8.60333 442.999 8.52308 442.156 8.58917C441.234 8.66139 441.077 8.61719 441.461 8.3943C441.734 8.23574 441.894 8.00372 441.817 7.87871C441.65 7.6091 443.218 7.33797 446.254 7.11145C447.959 6.98427 448.515 7.03461 448.704 7.33316C448.881 7.61333 448.949 7.62303 448.953 7.3685C448.959 6.85167 450.645 6.93515 451.249 7.48218C451.531 7.7377 451.761 7.82727 451.761 7.68121C451.761 7.52013 452.672 7.49155 454.075 7.60861C455.348 7.71475 457.336 7.8712 458.492 7.95627C459.649 8.04134 461.01 8.25779 461.517 8.43729C462.024 8.61678 462.752 8.70354 463.136 8.63007C463.52 8.55661 463.914 8.6255 464.011 8.78296C464.12 8.95906 464.047 8.98193 463.821 8.84229C463.593 8.70101 463.522 8.72542 463.634 8.90691C463.845 9.24895 465.183 9.5588 466.766 9.63234C467.7 9.67571 467.893 9.78555 467.918 10.2876C467.945 10.8268 467.752 10.9136 466.095 11.1059C465.076 11.2241 463.926 11.2936 463.541 11.2602L462.84 11.1994L463.584 11.6043C464.874 12.3064 466.132 12.6026 468.589 12.7827C469.9 12.8789 471.793 13.1638 472.796 13.416C475.102 13.9959 483.104 14.0404 483.453 13.4752C483.573 13.2807 483.819 13.2134 484.001 13.3257C484.469 13.6155 489.63 13.7131 489.455 13.4288C489.291 13.1628 489.332 13.1583 493.001 13.0469C495.591 12.9682 496.684 12.8723 500.561 12.3835C502.329 12.1606 503.363 12.2883 504.373 12.8543C504.796 13.0914 504.705 13.2262 503.686 13.8701C502.864 14.3895 501.86 14.695 500.344 14.8868C497.757 15.2141 495.289 15.6264 493.511 16.0283C492.447 16.2687 492.235 16.4173 492.347 16.8439C492.427 17.1501 492.645 17.3031 492.876 17.2145C493.092 17.1315 493.269 17.2034 493.269 17.3743C493.269 17.5452 493.048 17.687 492.778 17.6894C492.359 17.6929 492.349 17.7332 492.708 17.9658C492.974 18.1379 493.003 18.2395 492.787 18.2422C492.599 18.2448 492.518 18.436 492.607 18.6691C492.72 18.9632 492.44 19.2381 491.687 19.5732L490.605 20.0546L493.345 20.2239C494.852 20.317 496.84 20.3803 497.762 20.3647C498.685 20.349 499.439 20.352 499.439 20.3713C499.439 20.3906 499.187 20.6977 498.878 21.0538C498.57 21.4098 498.317 21.6157 498.317 21.5113C498.317 21.407 498.033 21.5078 497.686 21.7358C497.338 21.9636 496.119 22.2953 494.975 22.4728C493.832 22.6504 492.396 22.9723 491.785 23.188C491.174 23.4038 490.217 23.5848 489.658 23.5903C488.096 23.6056 484.162 24.6296 485.299 24.7246C485.441 24.7364 485.809 24.8043 486.117 24.8753C486.426 24.9464 486.832 25.0383 487.021 25.0796C487.663 25.2205 487.704 25.4937 487.111 25.6819C486.786 25.7851 486.19 26.1757 485.787 26.5497C485.384 26.9237 484.772 27.2297 484.428 27.2297C484.084 27.2297 483.658 27.4033 483.482 27.6156C483.219 27.9327 483.451 28.0343 484.78 28.1859C485.67 28.2874 486.777 28.4315 487.239 28.5063C488.34 28.6842 492.721 28.6585 493.022 28.4724C493.428 28.2212 496.635 28.1028 496.635 28.3389C496.635 28.463 496.445 28.7218 496.214 28.914C495.983 29.1062 495.793 29.3954 495.793 29.5566C495.793 29.7178 495.876 29.7666 495.978 29.665C496.079 29.5635 496.332 29.6211 496.539 29.793C496.747 29.9661 496.915 29.9859 496.915 29.8373C496.915 29.6898 497.104 29.569 497.336 29.569C498.009 29.569 497.825 29.8697 496.899 30.2797C495.858 30.7409 496.007 30.9344 497.685 31.3002C499.216 31.6338 499.508 32.1568 498.41 32.5996C497.274 33.0578 491.938 33.6526 488.888 33.6609C487.458 33.665 485.953 33.7522 485.544 33.855L484.8 34.0419L485.599 34.6961C486.038 35.056 486.611 35.355 486.872 35.3605C487.537 35.3747 487.739 35.8212 487.382 36.4881C487.006 37.1923 484.566 38.4586 483.586 38.4586C483.173 38.4586 482.934 38.5797 483.032 38.7393C483.128 38.8937 483.437 39.02 483.72 39.02C484.195 39.02 484.724 39.7209 484.619 40.2131C484.514 40.7135 488.963 40.1539 489.336 39.62C489.62 39.2122 496.782 38.1466 497.486 38.4073L498.156 38.6556L497.504 39.0049C497.146 39.1971 494.815 39.6941 492.326 40.1095C487.771 40.8696 486.663 41.4062 489.647 41.4062C490.564 41.4062 491.408 41.5665 491.682 41.793C492.072 42.1146 492.611 42.1235 494.884 41.8457C499.062 41.335 501.49 40.9842 502.059 40.809C502.436 40.693 502.55 40.7762 502.48 41.1175C502.378 41.615 501.51 42.1988 500.15 42.685C498.979 43.1036 499.707 43.4726 501.204 43.2195C501.853 43.1097 502.952 42.9309 503.646 42.8221L504.908 42.6244L503.856 43.6332C503.278 44.1881 502.805 44.6872 502.805 44.7424C502.805 44.7975 503.587 44.9313 504.544 45.0396C506.805 45.2958 508.016 45.9304 508 46.852C507.992 47.3381 506.177 47.9902 504.489 48.1138C503.794 48.1647 502.216 48.4071 500.982 48.6524C499.748 48.8977 497.854 49.1553 496.775 49.2247C495.695 49.2942 494.054 49.4841 493.129 49.6467C487.382 50.6568 486.088 50.9054 485.841 51.0476C485.688 51.1349 486.13 51.3444 486.822 51.5131C487.519 51.6828 488.081 51.9844 488.081 52.1884C488.081 52.6608 485.254 53.687 482.689 54.1459C481.441 54.3691 480.517 54.7012 480.215 55.0356C479.944 55.3349 479.005 55.7123 478.077 55.8952C475.969 56.3102 476.026 56.7039 478.316 57.5508C478.807 57.7324 479.152 58.027 479.082 58.2056C478.924 58.612 477.624 59.2321 476.93 59.2321C476.643 59.2321 476.487 59.3584 476.582 59.5128C476.677 59.6672 477.694 59.7935 478.842 59.7935C480.733 59.7935 481.493 60.0805 480.578 60.4498C479.762 60.7797 483.855 60.6011 485.876 60.2186C488.394 59.7423 489.763 59.9416 489.763 60.7844C489.763 61.1729 489.031 61.683 487.011 62.7013C485.107 63.6606 484.372 64.1624 484.627 64.3273C485.111 64.6405 484.633 64.9607 482.752 65.5826C480.097 66.4603 477.991 67.9317 478.267 68.7155C478.456 69.2508 477.421 69.5428 473.146 70.1605C471.021 70.4675 468.893 70.9132 468.416 71.1509C467.94 71.3886 466.933 71.6573 466.177 71.748C464.093 71.998 460.105 73.0077 459.482 73.4433C459.177 73.6558 458.546 73.8385 458.079 73.8494C457.612 73.8602 456.978 73.9777 456.669 74.1104C456.223 74.3025 456.337 74.3601 457.23 74.393C459.621 74.4811 460.889 74.717 461.206 75.1324C461.423 75.416 461.761 75.5032 462.188 75.3857C462.749 75.2315 462.77 75.2498 462.344 75.5174C462.071 75.6884 461.629 75.7923 461.362 75.7484C461.095 75.7044 460.707 75.7748 460.499 75.905C460.276 76.045 459.839 75.9904 459.43 75.7711C458.891 75.4824 458.621 75.4738 458.208 75.7322C457.872 75.9421 457.615 75.9629 457.507 75.7889C457.414 75.6377 456.619 75.5095 455.741 75.504C454.864 75.4986 453.83 75.3135 453.444 75.0929C452.604 74.6122 452.322 74.5769 452.322 74.9525C452.322 75.1069 452.519 75.2332 452.76 75.2332C453 75.2332 453.128 75.3452 453.043 75.4821C452.959 75.6189 453.154 75.8 453.477 75.8846C453.8 75.9691 454.009 76.2046 453.942 76.4078C453.819 76.7827 452.562 77.0024 448.676 77.3287C445.166 77.6235 444.189 77.7821 444.189 78.0577C444.189 78.2026 444.378 78.3212 444.61 78.3212C444.843 78.3212 445.03 78.5707 445.03 78.8826C445.03 79.2944 444.843 79.4441 444.329 79.4441C443.523 79.4441 443.385 79.8764 444.13 80.0713C444.406 80.1435 445.825 80.1352 447.285 80.0527C451.536 79.8126 453.236 79.8925 454.125 80.3742C454.577 80.6188 455.027 80.769 455.126 80.7078C455.225 80.6467 455.254 80.9523 455.19 81.3869C455.051 82.3353 455.445 82.4832 458.325 82.5625C460.048 82.61 460.182 82.6526 459.583 82.9633C458.598 83.4745 454.983 84.2081 452.828 84.3343C451.726 84.3989 450.686 84.6294 450.312 84.8918C449.515 85.4504 449.035 85.4574 448.496 84.9182C448.254 84.6757 447.579 84.4997 446.903 84.5032C444.825 84.5139 437.069 85.3034 436.016 85.6115C435.033 85.8992 435.003 85.9456 435.211 86.8663C435.341 87.4465 435.312 87.9367 435.136 88.113C434.936 88.3132 434.944 88.5227 435.164 88.787C435.834 89.595 434.981 89.7623 430.888 89.6262C427.708 89.5203 426.716 89.5783 426.071 89.9077C425.388 90.2562 422.31 90.7369 420.21 90.823C419.901 90.8356 419.018 90.9589 418.247 91.0969L416.844 91.3479L418.106 91.5521C418.801 91.6644 420.883 91.6918 422.734 91.6131C424.585 91.5344 427.235 91.4867 428.624 91.5073C430.012 91.5278 432.725 91.3389 434.653 91.0874C438.469 90.5898 442.403 90.2417 444.097 90.2519C444.687 90.2555 445.25 90.1481 445.347 90.0133C445.444 89.8784 445.917 89.752 446.399 89.7323C446.88 89.7126 447.274 89.5919 447.274 89.464C447.274 89.3362 447.558 89.3116 447.905 89.4093C448.399 89.5483 448.445 89.5229 448.115 89.2921C447.753 89.038 447.762 88.9967 448.186 88.993C448.456 88.9905 448.676 88.8479 448.676 88.6757C448.676 88.4835 448.943 88.5376 449.368 88.8161C450.135 89.3196 450.472 89.3986 450.239 89.0206C450.154 88.8838 450.336 88.7061 450.643 88.6258C450.962 88.5423 451.201 88.6187 451.201 88.8045C451.201 88.9924 451.643 89.1291 452.252 89.1291C452.921 89.1291 453.28 89.0061 453.238 88.7916C453.193 88.5593 453.495 88.4955 454.208 88.5867C455.375 88.7364 456.527 89.3905 456.533 89.9075C456.537 90.1286 456.635 90.1011 456.81 89.8309C457.021 89.5041 457.082 89.5867 457.086 90.2002C457.091 91.2128 456.629 92.0767 456.082 92.0767C455.847 92.0767 455.733 92.203 455.828 92.3574C455.923 92.5118 455.773 92.6478 455.494 92.6596C454.57 92.6987 453.983 92.8688 453.358 93.2787C452.798 93.6461 451.481 93.5047 451.481 93.077C451.481 92.9997 451.65 93.0014 451.857 93.0811C452.063 93.1605 452.41 93.0059 452.628 92.7377C452.969 92.3173 452.968 92.2831 452.625 92.4902C452.319 92.675 452.272 92.6117 452.424 92.2157C452.542 91.9077 452.477 91.6089 452.261 91.4721C451.725 91.1313 451.273 91.1954 451.761 91.5431C452.078 91.7686 451.915 91.8056 451.105 91.6927C450.509 91.6096 449.798 91.6858 449.515 91.8631C449.127 92.1057 448.902 92.1007 448.591 91.8424C448.26 91.5672 448.139 91.5977 447.963 91.9996C447.844 92.2738 447.766 92.5928 447.79 92.7086C447.815 92.8244 447.656 92.9191 447.437 92.9191C447.219 92.9191 446.992 93.0636 446.933 93.2402C446.874 93.4168 446.456 93.6008 446.003 93.6491C445.551 93.6974 445.04 93.9299 444.867 94.1658C444.695 94.4017 444.452 94.502 444.327 94.3886C444.202 94.2752 444.179 94.4035 444.275 94.6736C444.492 95.2784 443.956 95.3349 443.725 94.7317C443.578 94.3483 443.498 94.3533 443.032 94.7752C442.535 95.2256 442.506 95.2224 442.502 94.7172C442.498 94.2692 442.453 94.2507 442.226 94.6035C441.82 95.2312 441.878 95.368 442.629 95.5565C443.105 95.6761 443.299 95.9078 443.268 96.3193C443.219 96.975 442.242 97.4651 441.116 97.3989C440.067 97.3372 439.141 97.6985 439.141 98.1694C439.141 98.4726 438.862 98.5615 438.089 98.505C436.958 98.4225 435.057 98.7384 434.373 99.1225C434.033 99.3133 434.06 99.3629 434.513 99.3806C434.821 99.3924 435.705 99.4616 436.476 99.534C438.861 99.7577 442.033 99.7507 443.178 99.5191C443.963 99.3601 444.215 99.3868 444.074 99.6144C443.954 99.8098 444.03 99.8729 444.273 99.7795C444.504 99.6909 444.876 99.9478 445.172 100.4C445.533 100.952 445.581 101.204 445.339 101.285C445.111 101.36 445.166 101.528 445.506 101.795C445.967 102.156 445.937 102.179 445.17 102.045C444.708 101.965 444.487 101.973 444.68 102.064C445.39 102.4 444.999 102.744 443.908 102.744C443.2 102.744 442.785 102.615 442.782 102.394C442.779 102.135 442.714 102.143 442.537 102.423C442.385 102.663 442.23 102.698 442.119 102.519C441.931 102.214 441.574 102.237 440.697 102.613C440.397 102.742 439.736 102.856 439.229 102.866C438.067 102.89 437.689 103.587 438.839 103.587C439.294 103.587 439.711 103.769 439.803 104.008C439.912 104.292 439.789 104.429 439.426 104.429C439.13 104.429 438.787 104.587 438.664 104.78C438.342 105.283 437.199 105.879 436.905 105.697C436.768 105.612 436.576 105.671 436.479 105.828C436.382 105.985 435.955 106.113 435.529 106.113C435.103 106.113 434.07 106.318 433.232 106.569C431.909 106.965 431.791 107.056 432.331 107.259C432.673 107.387 435.015 107.475 437.535 107.454C440.055 107.433 442.281 107.518 442.483 107.643C442.691 107.772 442.932 107.736 443.041 107.559C443.267 107.194 451.985 106.917 452.202 107.268C452.278 107.391 452.536 107.417 452.775 107.325C453.07 107.212 453.109 107.095 452.895 106.963C452.722 106.856 452.964 106.768 453.433 106.768C453.902 106.768 454.285 106.889 454.285 107.036C454.285 107.184 454.478 107.145 454.713 106.95C454.948 106.754 455.23 106.684 455.34 106.794C455.449 106.904 455.225 107.233 454.842 107.525L454.145 108.056L454.846 107.921C455.461 107.803 455.478 107.819 454.986 108.053C454.178 108.437 452.848 108.398 452.069 107.965C451.31 107.544 450.359 107.683 450.359 108.215C450.359 108.46 449.805 108.57 448.536 108.577C447.392 108.584 446.713 108.473 446.713 108.279C446.713 108.11 446.555 108.178 446.362 108.431C446.109 108.763 445.35 108.941 443.628 109.071C442.317 109.17 440.447 109.429 439.474 109.647C438.5 109.865 437.301 110.055 436.809 110.07C436.318 110.085 435.284 110.27 434.513 110.48C433.198 110.84 433.347 110.854 436.897 110.711C438.979 110.626 440.872 110.555 441.104 110.553C441.335 110.55 444.238 110.252 447.554 109.89C450.871 109.528 454.486 109.194 455.589 109.146C456.692 109.099 457.536 108.966 457.466 108.85C457.395 108.734 457.881 108.639 458.546 108.639C459.21 108.639 460.89 108.454 462.278 108.231C464.659 107.847 470.259 107.452 469.498 107.721C469.305 107.789 469.217 107.961 469.305 108.102C469.392 108.243 469.109 108.365 468.675 108.372C468.242 108.38 467.446 108.626 466.906 108.919C466.366 109.212 465.672 109.569 465.363 109.713C464.349 110.186 447.808 112.925 443.908 113.266C442.751 113.367 439.407 113.7 436.476 114.005C433.545 114.311 429.677 114.684 427.88 114.834C426.083 114.984 424.005 115.289 423.263 115.513C422.288 115.806 421.86 115.832 421.72 115.606C421.543 115.319 418.593 115.398 415.021 115.784C414.481 115.843 412.778 115.97 411.235 116.066C408.467 116.239 404.25 116.821 401.89 117.357C401.223 117.508 400.56 117.558 400.416 117.469C400.271 117.38 398.317 117.585 396.073 117.925C392.753 118.428 391.874 118.48 391.352 118.2C390.827 117.919 390.154 117.966 387.651 118.46C383.484 119.282 378.046 120.35 375.336 120.88C374.102 121.121 372.31 121.497 371.352 121.716C370.395 121.935 369.196 122.114 368.688 122.113C368.18 122.113 367.196 122.293 366.502 122.516C365.332 122.891 362.937 123.307 356.546 124.245C353.262 124.727 352.601 124.838 349.254 125.472C347.711 125.764 345.187 126.211 343.645 126.466C342.102 126.721 340.462 126.992 339.999 127.068C336.724 127.61 336.101 127.6 335.449 126.995C335.098 126.668 334.81 126.258 334.81 126.082C334.81 125.907 334.716 125.779 334.6 125.797C334.484 125.815 334.101 125.815 333.749 125.797C333.213 125.769 333.154 125.678 333.388 125.239C333.732 124.597 333.457 124.251 332.943 124.678C332.365 125.158 332.496 124.726 333.162 123.96C333.511 123.558 334.212 123.198 334.857 123.089C335.798 122.93 335.906 122.842 335.604 122.478C335.152 121.932 335.534 121.899 317.562 124.075C316.328 124.225 314.12 124.407 312.654 124.482C311.189 124.556 308.538 124.749 306.765 124.912C304.991 125.074 302.656 125.257 301.576 125.318C300.496 125.379 299.114 125.56 298.504 125.72C297.894 125.88 295.474 126.019 293.126 126.028C290.779 126.038 288.69 126.102 288.486 126.171C287.981 126.341 281.409 126.685 279.845 126.624C279.154 126.597 278.395 126.4 278.159 126.186C277.631 125.707 276.285 125.659 270.025 125.896C267.147 126.005 264.504 126.252 263.637 126.494C262.504 126.81 260.626 126.896 255.644 126.862C252.061 126.837 246.102 126.912 242.4 127.029C234.897 127.265 235.298 127.268 227.535 126.93C222.509 126.712 219.609 126.703 215.195 126.892C214.424 126.925 214.014 127.009 214.284 127.08C214.554 127.151 214.774 127.341 214.774 127.502C214.774 127.695 213.987 127.74 212.461 127.632C211.188 127.542 207.37 127.34 203.977 127.184C200.583 127.027 196.229 126.77 194.301 126.611C186.555 125.975 183.6 125.751 179.577 125.494C169.515 124.851 164.211 124.594 158.683 124.484C156.138 124.434 152.983 124.306 151.672 124.201C150.36 124.096 148.404 124.021 147.324 124.035C146.245 124.049 144.099 123.936 142.557 123.784C141.014 123.632 136.018 123.452 131.455 123.384C126.892 123.316 122.601 123.137 121.92 122.987C121.238 122.836 119.689 122.645 118.478 122.561C117.266 122.478 115.877 122.344 115.392 122.265C113.734 121.993 111.145 121.809 107.359 121.692C104.025 121.589 100.786 121.342 96.0007 120.827C95.2294 120.744 94.1566 120.641 93.6168 120.598C93.0769 120.554 91.6886 120.438 90.5317 120.339C89.3748 120.24 87.4188 120.082 86.185 119.987C84.9512 119.893 83.8785 119.776 83.8011 119.729C83.7238 119.681 82.9428 119.566 82.0656 119.473C81.1883 119.379 80.2857 119.232 80.0598 119.145C79.8338 119.058 78.5323 118.95 77.1674 118.904C73.4189 118.778 73.4238 118.778 73.4238 118.325C73.4238 118.093 73.2902 117.903 73.1268 117.903C72.9634 117.903 72.9211 118.051 73.0326 118.232C73.1709 118.456 73.0796 118.5 72.7458 118.372C72.4764 118.269 71.9778 118.184 71.6376 118.184C71.2201 118.184 71.0053 118.002 70.9768 117.623C70.9263 116.952 71.0786 116.919 71.641 117.482C72.228 118.07 72.8847 118.026 72.6874 117.412C72.5903 117.11 72.6206 117.042 72.7663 117.235C72.9277 117.448 73.7178 117.489 75.2468 117.361C77.8788 117.14 79.8655 117.201 83.5203 117.613C84.9857 117.778 86.8788 117.981 87.7272 118.064C88.5756 118.147 89.417 118.263 89.597 118.322C89.7771 118.381 89.9979 118.238 90.0876 118.004C90.2085 117.688 90.4748 117.627 91.1144 117.768C92.119 117.989 92.7648 118.073 95.4397 118.33C96.5195 118.434 97.4785 118.566 97.5707 118.623C97.7673 118.744 101.519 118.764 106.658 118.671C109.919 118.612 112.218 118.773 113.934 119.179C114.9 119.409 121.663 119.508 121.663 119.293C121.663 119.182 120.811 119 119.769 118.889C118.728 118.777 117.624 118.636 117.315 118.575C115.151 118.148 109.356 117.669 104.695 117.533C103.615 117.501 102.598 117.39 102.435 117.285C102.164 117.111 93.5759 116.441 93.1151 116.558C93.0054 116.585 91.9691 116.52 90.8122 116.412C89.0237 116.245 84.4561 115.909 83.3099 115.86C82.8956 115.842 82.8467 115.48 83.227 115.245C83.4999 115.076 85.614 115.037 87.5272 115.165C88.1114 115.204 88.6919 115.403 88.8173 115.606C88.9869 115.881 89.4689 115.927 90.7 115.785C91.6101 115.681 92.4392 115.545 92.5424 115.483C92.6457 115.422 92.9216 115.563 93.1556 115.798C93.3896 116.032 93.6478 116.115 93.7294 115.983C93.8878 115.726 99.5485 115.836 101.189 116.127C101.729 116.223 102.681 116.327 103.304 116.359C103.927 116.391 104.716 116.566 105.057 116.749C105.552 117.014 105.676 117.006 105.676 116.706C105.676 116.486 106.051 116.301 106.588 116.258C108.806 116.079 111.91 116.096 114.371 116.3C116.141 116.447 116.897 116.429 116.622 116.245C115.517 115.504 117.591 115.139 120.821 115.506C123.685 115.831 124.197 115.848 125.434 115.66C126.073 115.563 126.968 115.583 127.424 115.706C128.625 116.028 134.868 116.598 137.649 116.64C138.96 116.66 140.853 116.762 141.855 116.868C142.858 116.973 144.877 117.124 146.343 117.204C147.808 117.283 151.279 117.533 154.055 117.76C156.832 117.988 160.962 118.258 163.233 118.362C166.934 118.531 167.38 118.502 167.541 118.083C167.694 117.684 168.181 117.617 170.844 117.627C172.562 117.634 174.536 117.537 175.23 117.412L176.492 117.184L174.389 116.871C173.232 116.699 171.843 116.561 171.304 116.566C170.764 116.57 168.555 116.378 166.396 116.139C164.236 115.9 160.134 115.563 157.281 115.39C154.427 115.218 151.811 115.017 151.468 114.943C151.125 114.869 148.286 114.685 145.158 114.535C139.537 114.265 135.598 114.044 132.6 113.832C131.752 113.772 128.842 113.595 126.133 113.439C123.424 113.282 121.026 113.098 120.804 113.029C120.582 112.961 120.148 112.809 119.84 112.692C119.531 112.575 118.793 112.445 118.2 112.402C117.607 112.359 116.976 112.123 116.797 111.879C116.539 111.525 115.808 111.419 113.248 111.361C111.474 111.321 109.897 111.211 109.743 111.116C109.589 111.021 108.516 110.869 107.359 110.778C101.829 110.345 96.3004 109.994 93.757 109.913C92.2145 109.864 88.9331 109.603 86.4651 109.334C83.9971 109.064 80.8419 108.802 79.4537 108.75C69.8452 108.396 62.1712 107.949 58.1389 107.51C56.7506 107.359 54.3173 107.154 52.7315 107.054C51.1456 106.955 49.7815 106.766 49.7 106.634C49.6185 106.502 49.9694 106.383 50.4799 106.371C50.9903 106.358 51.7642 106.322 52.1996 106.291C52.6351 106.259 53.0463 106.322 53.1134 106.431C53.1804 106.539 53.7016 106.499 54.2715 106.342C54.85 106.182 56.119 106.137 57.144 106.241C58.154 106.342 63.5237 106.475 69.0767 106.536C74.6298 106.596 81.2556 106.727 83.8008 106.827C88.3374 107.005 89.6229 106.896 86.6469 106.586C85.8213 106.5 85.0848 106.369 85.0102 106.294C84.8102 106.094 85.8358 105.599 86.6865 105.485C87.6777 105.352 87.9905 104.996 87.1429 104.966C86.7701 104.952 84.8244 104.824 82.8192 104.68C80.8139 104.536 76.87 104.344 74.0548 104.252C69.4272 104.102 68.9365 104.039 68.9365 103.594C68.9365 102.977 67.8075 102.831 61.0031 102.568C58.2593 102.463 55.9486 102.269 55.8681 102.139C55.7877 102.009 55.1689 101.902 54.493 101.902C52.1888 101.902 52.8347 101.127 55.665 100.495C56.4639 100.317 57.5366 100.195 58.0489 100.223C61.4647 100.413 60.5687 99.8598 56.7366 99.4136C55.1941 99.2339 53.0486 99.0257 51.9688 98.9509C50.8891 98.8762 48.9329 98.6891 47.6217 98.5352C46.3106 98.3813 43.6602 98.172 41.7321 98.0702C39.3577 97.9449 38.1359 97.7664 37.946 97.5173C37.7906 97.3135 36.7899 97.0679 35.7023 96.9666C34.6225 96.8661 33.6129 96.6296 33.4586 96.4411C33.3044 96.2526 32.2564 96.0131 31.1299 95.909C30.0033 95.8048 28.7986 95.534 28.4529 95.3073C28.0567 95.0474 26.8438 94.8493 25.1725 94.7715C21.5691 94.6036 18.7458 94.2873 18.5893 94.0338C18.4249 93.7675 20.8806 93.387 21.2579 93.6204C21.4126 93.7161 21.5392 93.6746 21.5392 93.5283C21.5392 93.382 21.0974 93.1793 20.5576 93.0779C19.4917 92.8778 19.2902 92.5286 20.0667 92.2272C20.9832 91.8716 19.7007 91.3084 16.8174 90.8003C14.3957 90.3735 12.8653 89.846 13.9808 89.8226C15.0293 89.8005 13.4107 89.3057 11.7257 89.1331C10.7254 89.0307 9.76028 88.825 9.58102 88.6761C9.40173 88.5272 8.45685 88.2767 7.48129 88.1194C4.7706 87.6824 4.79996 87.3314 7.56519 87.1138C8.59836 87.0325 9.54294 86.7917 9.82703 86.5372C10.2255 86.1801 10.7129 86.1374 12.4913 86.3037C16.1077 86.6417 16.8236 86.5759 17.3664 85.8557C17.632 85.5033 17.7947 85.1265 17.7281 85.0185C17.6614 84.9105 16.7563 84.7337 15.7167 84.6257C14.6771 84.5176 13.7003 84.33 13.5461 84.2088C13.3918 84.0876 12.6662 83.8991 11.9335 83.79C9.92267 83.4903 10.3354 83.0937 12.658 83.0937C13.7892 83.0937 14.8102 82.999 14.927 82.8832C15.0438 82.7674 16.2202 82.6727 17.5411 82.6727C19.2115 82.6727 19.9796 82.5658 20.0633 82.3218C20.1458 82.0813 19.8453 81.9704 19.1085 81.9693C18.5172 81.9688 17.5917 81.8518 17.0518 81.7102C16.5119 81.5686 15.002 81.3728 13.6963 81.2751C12.3906 81.1774 11.1801 80.9793 11.0061 80.8348C10.8322 80.6903 10.6164 80.6457 10.5265 80.7357C10.4366 80.8256 10.0696 80.7943 9.71094 80.666C9.2074 80.486 9.5062 80.3921 11.022 80.254C12.8107 80.0911 14.8508 79.6814 15.93 79.2684C16.6149 79.0063 15.5498 78.7182 12.3542 78.3012C10.7731 78.0949 9.47949 77.8511 9.47949 77.7596C9.47949 77.668 8.65912 77.6453 7.65646 77.7092C6.19147 77.8026 5.83353 77.7449 5.83353 77.4151C5.83353 76.9063 6.72122 76.0742 7.25793 76.08C7.58768 76.0835 7.58377 76.1313 7.23605 76.3564C6.87805 76.588 6.88983 76.6292 7.31497 76.6328C7.58975 76.6354 7.88977 76.4411 7.9816 76.2015C8.1239 75.8303 8.63098 75.7875 11.4084 75.9126C14.8889 76.0693 15.7443 75.8836 15.1031 75.1103C14.0291 73.815 9.64981 72.4263 6.63931 72.4263C4.82047 72.4263 3.87054 72.0858 3.87054 71.4339C3.87054 71.1075 4.31924 71.024 6.0441 71.0293C7.23959 71.0329 8.72247 71.1691 9.33948 71.3317C9.95648 71.4943 12.8636 71.6846 15.7998 71.7545C20.992 71.8782 21.1395 71.8663 21.1808 71.3174C21.2214 70.7775 20.8791 70.3887 20.2773 70.2912C20.123 70.2663 18.9131 70.0414 17.5886 69.7916C13.2538 68.974 9.40488 68.476 5.46555 68.2229C1.81583 67.9885 0.571106 67.667 0.948242 67.0561C1.03433 66.9167 1.22534 66.8773 1.37277 66.9685C1.5202 67.0596 1.60611 66.9669 1.56369 66.7625C1.52103 66.5569 1.70468 66.4079 1.97446 66.4292C2.24274 66.4503 2.40161 66.3695 2.32751 66.2494C2.25333 66.1294 2.62109 65.9508 3.14474 65.8524C4.27658 65.6399 4.54498 65.1339 3.9653 64.3055C3.65637 63.864 3.62344 63.6008 3.84381 63.3351C4.2052 62.8992 3.96915 62.601 3.26288 62.601C2.98007 62.601 2.74875 62.5481 2.74875 62.4836C2.74875 62.419 2.66501 62.1476 2.56259 61.8806C2.39154 61.4344 2.57986 61.4101 4.87637 61.5811C6.25131 61.6835 7.84958 61.8423 8.42804 61.9341C9.26501 62.0669 9.47974 62.0116 9.47974 61.6631C9.47974 61.4223 9.68314 61.1113 9.93182 60.972C10.5738 60.6124 10.1884 58.9949 9.38321 58.6698C8.80753 58.4374 8.80536 58.4239 9.33948 58.3882C9.90042 58.3507 9.90042 58.3507 9.33948 58.1094C8.79236 57.8741 9.55664 57.7735 12.4245 57.7034C13.6208 57.6741 14.528 57.2962 14.528 56.8272C14.528 56.5766 14.8186 56.4236 15.2992 56.4212C15.7234 56.4187 16.3574 56.3404 16.7081 56.2464C17.3061 56.086 17.3148 56.052 16.8483 55.6977C16.5748 55.49 16.0057 55.316 15.5837 55.3111C15.1618 55.306 13.9839 54.86 12.9662 54.3196C11.9398 53.7746 10.7075 53.3371 10.1987 53.3371C8.49908 53.3371 5.84802 52.9797 5.97864 52.7682C6.0499 52.6528 5.89355 52.5756 5.63116 52.5968C5.3688 52.618 5.10913 52.4176 5.05417 52.1515C4.92648 51.5339 6.58249 50.469 7.43665 50.6195C7.77832 50.6797 8.10373 50.5911 8.15982 50.4227C8.29205 50.0256 11.5652 49.9134 12.8744 50.261C13.4304 50.4087 16.3016 50.5637 19.2549 50.6055C24.2477 50.6763 25.72 50.533 23.8532 50.1579C23.429 50.0727 22.514 49.8744 21.8199 49.7172C21.1257 49.56 20.0215 49.4259 19.3659 49.4192C18.7103 49.4125 18.1739 49.2806 18.1739 49.1263C18.1739 48.9719 17.9763 48.8455 17.7348 48.8455C17.4933 48.8455 17.0365 48.7067 16.72 48.5371C16.1505 48.232 16.1515 48.2251 16.8085 47.8972C17.959 47.323 17.6025 46.7814 15.6689 46.166C14.6769 45.8503 13.8061 45.4082 13.7339 45.1835C13.6616 44.9589 13.4909 44.7018 13.3546 44.6123C12.9256 44.3305 13.4391 43.4644 13.9246 43.6509C14.1699 43.7451 14.2932 43.7447 14.1986 43.6498C14.1039 43.5551 14.3447 43.1592 14.7335 42.77C15.2449 42.2581 15.7723 42.0496 16.6407 42.0159C17.3009 41.9903 17.79 41.8868 17.7276 41.7858C17.6653 41.6849 18.8221 41.6642 20.2984 41.7398C22.4446 41.8498 23.0768 41.7921 23.4529 41.4518C23.9752 40.9793 26.7295 40.7845 28.1663 41.1185C28.7149 41.246 29.1153 41.2066 29.2345 41.0134C29.3395 40.8435 29.7231 40.7044 30.087 40.7044C30.9308 40.7044 31.6359 40.4352 31.6359 40.113C31.6359 39.9751 31.4529 39.8623 31.2292 39.8623C31.0054 39.8623 30.7153 39.6707 30.5844 39.4366C30.4368 39.1725 29.3404 38.8151 27.6958 38.4948C24.4555 37.8637 22.0701 36.899 22.2957 36.3107C22.3823 36.0847 22.6328 35.9688 22.8522 36.0531C23.0717 36.1375 23.1808 36.0922 23.0946 35.9527C23.0084 35.8131 23.2688 35.3054 23.6732 34.8243C24.2144 34.1805 24.5573 33.997 24.9722 34.1288C25.2847 34.2281 25.4657 34.194 25.3782 34.0523C25.2914 33.9117 25.6593 33.7842 26.1958 33.769C26.7323 33.7538 28.0571 33.524 29.1398 33.2584L31.1083 32.7755L30.4818 32.1081C30.1373 31.7409 29.7387 31.4406 29.5961 31.4406C29.4535 31.4406 28.9037 31.2348 28.3743 30.9834C27.4513 30.545 27.4293 30.4995 27.838 29.8752C28.1065 29.4649 28.1599 29.1596 27.9823 29.0497C27.8272 28.9537 27.7813 28.7442 27.8802 28.584C27.9962 28.396 28.1472 28.4278 28.3055 28.6736C28.4647 28.9207 28.6247 28.9538 28.7612 28.768C28.8769 28.6105 29.3502 28.2988 29.8129 28.0754L30.6543 27.6693L29.7667 27.5739C28.8056 27.4706 28.2918 26.7502 28.9884 26.4826C29.2238 26.3922 29.4862 26.388 29.5714 26.4734C29.6567 26.5587 30.1465 26.3923 30.66 26.1037C31.1734 25.815 32.0732 25.4887 32.6594 25.3787C33.2456 25.2686 33.8952 25.0084 34.1029 24.8005C34.5949 24.3081 34.7875 24.3189 37.3934 24.986C39.7321 25.5848 40.3914 25.529 41.351 24.651C41.8922 24.1558 42.1107 24.1314 43.576 24.4026C45.4982 24.7583 49.1195 24.8038 48.9132 24.4697C48.8339 24.3413 47.8484 24.0791 46.7231 23.887C43.8562 23.3977 43.5336 23.2926 44.0044 23.0014C44.8204 22.4966 41.1663 21.3049 37.5952 20.9112C36.6308 20.8049 35.7806 20.6188 35.7059 20.4978C35.6311 20.3767 35.8347 19.9408 36.1581 19.5292C36.7015 18.8378 36.7119 18.7426 36.2946 18.281C36.0461 18.0062 35.8428 17.7122 35.8428 17.6278C35.8428 17.2809 40.5919 17.7801 42.1531 18.2911C44.398 19.026 48.9438 19.5623 49.3639 19.1419C49.586 18.9195 49.588 18.7286 49.3708 18.4666C49.0776 18.1129 48.6278 17.9616 44.8876 16.9584C43.7212 16.6456 43.1347 16.3468 43.1347 16.0655C43.1347 15.7099 43.4657 15.6727 45.2156 15.8314C46.5489 15.9523 47.361 15.9158 47.4759 15.7298C47.5745 15.5701 47.5007 15.4394 47.3115 15.4394C47.1224 15.4394 47.033 15.374 47.1128 15.2941C47.3008 15.1059 51.2728 15.9402 51.6678 16.2509C51.9783 16.4951 56.0738 17.1265 56.9473 17.0648C57.2172 17.0458 57.4381 16.872 57.4381 16.6788C57.4381 16.4856 57.5034 16.1572 57.5831 15.9491C57.721 15.5895 54.2959 14.8627 48.3939 13.9989C47.5072 13.8692 46.3244 13.5717 45.7654 13.3379C45.2064 13.1042 44.3542 12.9122 43.8718 12.9113C42.6016 12.9088 40.7773 12.3531 41.072 12.058C41.2085 11.9214 42.9164 11.7736 44.8675 11.7296C46.8185 11.6856 48.3938 11.6282 48.3681 11.602C48.3426 11.5758 47.6979 11.3091 46.9357 11.0095C45.6082 10.4876 45.5765 10.4502 46.1831 10.1253C46.6581 9.87083 47.1657 9.86106 48.2146 10.0863C49.9215 10.4527 50.1462 10.4575 50.1462 10.128C50.1462 9.98588 49.769 9.78667 49.308 9.68532C47.7749 9.34827 48.1069 8.9828 49.9463 8.9828C51.0168 8.9828 52.0993 8.80474 52.6252 8.54217C53.1573 8.27648 53.7541 8.1798 54.1283 8.2987C54.9284 8.55286 68.0963 8.6498 67.9423 8.40038C67.6161 7.87201 71.2953 7.87473 74.4346 8.40547C80.7922 9.47971 86.2014 10.0903 89.6907 10.1277C91.6189 10.1483 94.5216 10.3388 96.1412 10.551C97.7609 10.7631 100.646 11.067 102.553 11.2262C104.46 11.3853 106.101 11.5642 106.199 11.6236C106.298 11.6829 107.324 11.8122 108.481 11.9107C109.638 12.0093 111.027 12.1434 111.566 12.2087C112.69 12.3447 117.807 12.6302 121.523 12.7644C124.21 12.8614 128.294 13.1196 131.058 13.3672C131.984 13.4502 135.581 13.5719 139.051 13.6377C142.522 13.7036 146.624 13.861 148.166 13.9876C149.709 14.1141 153.975 14.2051 157.646 14.1897C163.199 14.1665 164.367 14.0922 164.588 13.748C164.813 13.397 164.892 13.3937 165.105 13.726C165.273 13.9869 165.634 14.0623 166.186 13.9517C166.643 13.8602 167.153 13.9237 167.322 14.0931C167.491 14.2621 168.046 14.427 168.555 14.4595C169.064 14.4921 169.733 14.5936 170.042 14.685C171.723 15.1832 173.474 15.328 174.179 15.0272C174.746 14.7858 176.159 15.071 175.964 15.3873C175.892 15.5039 177.243 15.6332 178.967 15.6747C183.609 15.7864 184.091 15.8375 184.616 16.2739C185.043 16.6287 185.086 16.6123 185.001 16.1264C184.937 15.7561 185.042 15.6122 185.327 15.6798C185.558 15.7347 186.031 15.782 186.378 15.7851C186.726 15.7881 187.009 15.8876 187.009 16.0062C187.009 16.1248 187.213 16.2999 187.461 16.3954C187.79 16.5215 187.867 16.4488 187.745 16.1301C187.629 15.8278 187.685 15.76 187.924 15.9122C188.115 16.0337 189.471 16.1728 190.936 16.2213C194.018 16.3233 193.56 16.3219 208.044 16.2708C214.137 16.2493 219.902 16.3229 220.856 16.4344C221.81 16.546 222.802 16.5557 223.061 16.4561C223.539 16.2728 232.701 15.9108 235.516 15.964C237.717 16.0057 240.213 14.7103 238.825 14.247C238.618 14.1779 238.761 13.9793 239.175 13.7605C239.561 13.5571 239.946 13.2841 240.031 13.1537C240.341 12.6827 242.722 12.4199 243.399 12.7822C243.825 13.0104 244.954 13.0924 246.73 13.024C248.207 12.9671 253.061 12.8539 257.515 12.7724C261.969 12.6909 265.92 12.5473 266.294 12.4532C266.669 12.3591 268.261 12.2628 269.832 12.2391C271.404 12.2155 272.942 12.0542 273.25 11.8806C273.802 11.5701 276.403 11.0604 276.839 11.1774C277.375 11.3216 278.372 11.2854 279.28 11.0886C279.82 10.9716 280.514 10.8972 280.823 10.923C281.131 10.9489 281.636 10.9923 281.944 11.0196C282.253 11.0468 283.704 10.9208 285.17 10.7394C286.635 10.5581 288.38 10.4124 289.047 10.4156C289.713 10.4186 290.408 10.3019 290.589 10.1558C290.771 10.0097 291.329 9.80239 291.831 9.6951C292.577 9.53542 292.742 9.58624 292.742 9.97508C292.742 10.3959 292.974 10.4275 294.775 10.2515C295.894 10.1422 298.828 10.0237 301.296 9.9881C303.764 9.95251 306.463 9.77499 307.294 9.59364C308.125 9.41228 308.866 9.26389 308.941 9.26389C309.016 9.26389 308.92 9.0744 308.728 8.8428C308.536 8.61121 307.953 8.42174 307.432 8.42174C306.911 8.42174 306.484 8.3689 306.484 8.30433C306.484 8.23976 306.408 7.98709 306.314 7.74287C306.081 7.13387 306.87 7.16382 307.494 7.78763C307.847 8.14102 308.014 8.17942 308.099 7.92624C308.163 7.73367 308.331 7.64749 308.472 7.73477C308.613 7.82198 308.728 7.79117 308.728 7.66626C308.728 7.54135 309.012 7.42368 309.359 7.40474C309.706 7.38583 311.631 7.22736 313.636 7.0526C315.641 6.87785 319.68 6.68428 322.611 6.62244C325.542 6.56061 328.255 6.44075 328.641 6.35609C329.947 6.06926 337.131 5.40411 340.981 5.21353C348.114 4.86041 353.522 3.8392 354.637 2.63483C354.986 2.25809 355.601 1.9539 356.042 1.93954C359.671 1.82149 364.711 1.44316 366.923 1.12276C367.849 0.988678 369.472 0.801529 370.531 0.706848C371.59 0.612167 373.09 0.414413 373.865 0.267365C374.639 0.120316 375.319 0 375.375 0C375.431 0 375.477 0.323257 375.477 0.718369L375.477 0.717896ZM375.477 3.27209C375.477 3.57918 375.601 3.60214 376.027 3.37381C376.356 3.19763 376.512 2.90826 376.415 2.65497C376.29 2.32828 376.164 2.30493 375.865 2.55327C375.652 2.7305 375.477 3.05397 375.477 3.27209ZM328.22 7.44737C327.123 7.84129 327.15 7.84706 329.482 7.71021C334.821 7.39684 336.493 7.23807 336.493 7.04451C336.493 6.67827 329.4 7.02371 328.22 7.44737ZM458.492 10.8374C458.492 10.8981 458.682 10.9477 458.913 10.9477C459.144 10.9477 459.334 10.8254 459.334 10.6758C459.334 10.5263 459.144 10.4766 458.913 10.5655C458.682 10.6544 458.492 10.7767 458.492 10.8374ZM438.159 11.7899C438.061 11.9485 438.291 12.0706 438.687 12.0706C439.073 12.0706 439.466 11.9443 439.562 11.7899C439.659 11.6314 439.43 11.5092 439.034 11.5092C438.648 11.5092 438.255 11.6355 438.159 11.7899ZM451.481 13.2262C451.481 13.5159 451.817 13.5431 452.44 13.3039C453.143 13.0335 452.954 12.6963 452.182 12.8441C451.796 12.9179 451.481 13.0899 451.481 13.2262ZM292.788 13.2719C291.831 13.5388 291.7 13.6413 292.171 13.7531C292.919 13.9307 301.843 13.5555 306.625 13.1454C307.924 13.034 297.889 12.7619 295.827 12.8526C294.824 12.8968 293.457 13.0855 292.788 13.2719ZM283.066 14.1359C282.758 14.209 283.326 14.2584 284.328 14.2459C286.721 14.2158 287.669 13.9579 286.151 13.7496C285.534 13.6648 284.714 13.6872 284.328 13.7993C283.943 13.9114 283.375 14.0629 283.066 14.1359V14.1359ZM462.045 14.0534C461.468 14.0703 461.472 14.085 462.12 14.3443C462.885 14.6501 463.541 14.4978 463.541 14.0144C463.541 13.8383 463.341 13.7714 463.097 13.8652C462.853 13.959 462.38 14.0437 462.045 14.0534ZM278.853 14.3694C278.778 14.4445 279.277 14.5272 279.962 14.5531C280.648 14.5791 281.295 14.4591 281.402 14.2864C281.538 14.0659 281.208 14.0113 280.293 14.1028C279.576 14.1743 278.928 14.2944 278.853 14.3694ZM59.5414 17.685C59.4341 17.8589 59.8816 17.9531 60.7168 17.9325C61.9142 17.9031 61.9711 17.8753 61.2242 17.685C59.9969 17.3725 59.7344 17.3725 59.5414 17.685ZM491.814 21.8069C492.017 21.888 492.259 21.8781 492.352 21.7848C492.445 21.6915 492.279 21.6251 491.984 21.6373C491.657 21.6508 491.591 21.7173 491.814 21.8069V21.8069ZM488.501 22.1766C487.938 22.3573 487.91 22.403 488.361 22.4096C488.67 22.4142 489.174 22.3093 489.483 22.1766C490.198 21.8692 489.46 21.8692 488.501 22.1766ZM484.738 22.0663C484.494 22.16 484.294 22.4638 484.294 22.7414C484.294 23.1714 484.471 23.224 485.486 23.097C486.775 22.9357 487.616 22.4573 486.611 22.4573C486.281 22.4573 485.932 22.331 485.837 22.1766C485.637 21.8535 485.364 21.826 484.738 22.0663ZM29.1118 26.9489C29.1118 27.1033 29.3326 27.2277 29.6025 27.2253C30.022 27.2218 30.0322 27.1815 29.6727 26.9489C29.1434 26.6065 29.1118 26.6065 29.1118 26.9489ZM477.791 38.3696C477.994 38.4507 478.236 38.4407 478.329 38.3474C478.422 38.2541 478.256 38.1878 477.961 38.2C477.634 38.2135 477.568 38.28 477.791 38.3696V38.3696ZM480.088 39.1886C480.088 39.6462 480.868 39.6976 481.892 39.3076C483.008 38.8831 482.743 38.5844 481.35 38.6953C480.503 38.7627 480.088 38.9251 480.088 39.1886ZM474.878 38.9861C475.158 39.4397 476.161 39.5553 476.161 39.1341C476.161 38.8977 475.873 38.7393 475.444 38.7393C475.049 38.7393 474.794 38.8503 474.878 38.9861ZM477.003 39.3007C476.69 39.5031 476.851 39.5739 477.634 39.5771C478.212 39.5797 478.685 39.4551 478.685 39.3007C478.685 38.9431 477.555 38.9431 477.003 39.3007ZM9.47974 72.1453C9.47974 72.2997 9.60596 72.426 9.76022 72.426C9.91446 72.426 10.0406 72.2997 10.0406 72.1453C10.0406 71.9909 9.91446 71.8646 9.76022 71.8646C9.60596 71.8646 9.47974 71.9909 9.47974 72.1453ZM7.44644 77.3842C7.63922 77.4621 7.95471 77.4621 8.14749 77.3842C8.34033 77.3063 8.18256 77.2426 7.797 77.2426C7.41132 77.2426 7.2536 77.3063 7.44644 77.3842ZM11.6533 80.7651C12.0003 80.832 12.5683 80.832 12.9153 80.7651C13.2624 80.6982 12.9784 80.6434 12.2843 80.6434C11.5901 80.6434 11.3062 80.6982 11.6533 80.7651ZM24.6244 83.0313C24.6244 83.1515 25.6656 83.3996 26.9382 83.5827C28.2108 83.7658 29.5557 84.0032 29.9269 84.1102C30.346 84.2311 30.5368 84.1995 30.4302 84.0271C30.3359 83.8743 29.1488 83.5886 27.7922 83.3922C26.4355 83.1958 25.1994 82.995 25.0451 82.9461C24.8909 82.8971 24.7331 82.8471 24.6945 82.8349C24.6559 82.8228 24.6244 82.9111 24.6244 83.0313ZM433.672 85.62C433.171 85.8354 433.192 85.8634 433.866 85.881C434.281 85.8919 434.698 85.7744 434.794 85.62C435.001 85.2849 434.451 85.2849 433.672 85.62ZM26.5876 87.2647C26.5876 87.3973 27.8542 87.6499 29.4023 87.8261C32.8891 88.223 33.5153 88.231 33.1588 87.8742C33.0092 87.7244 31.501 87.4894 29.8073 87.352C28.1136 87.2145 26.6963 87.0844 26.6577 87.0628C26.6192 87.0412 26.5876 87.1321 26.5876 87.2647V87.2647ZM449.406 90.6262C449.327 90.7549 449.446 90.8601 449.67 90.8601C449.895 90.8601 450.079 90.7549 450.079 90.6262C450.079 90.4976 449.96 90.3923 449.815 90.3923C449.67 90.3923 449.486 90.4976 449.406 90.6262ZM411.884 91.1455C412.086 91.2266 412.328 91.2166 412.421 91.1234C412.515 91.0301 412.349 90.9637 412.053 90.9759C411.727 90.9895 411.66 91.0559 411.884 91.1455V91.1455ZM455.407 91.5152C455.407 91.6696 455.628 91.794 455.898 91.7916C456.318 91.788 456.328 91.7478 455.968 91.5152C455.439 91.1728 455.407 91.1728 455.407 91.5152ZM454.286 91.9528C454.286 92.0209 454.412 92.0766 454.566 92.0766C454.72 92.0766 454.846 91.9428 454.846 91.7793C454.846 91.6158 454.72 91.5601 454.566 91.6555C454.412 91.7509 454.286 91.8847 454.286 91.9528ZM438.299 93.9074C437.914 94.0153 436.715 94.209 435.635 94.3379C434.555 94.4667 433.23 94.7057 432.69 94.8689C432.15 95.0321 431.709 95.1551 431.709 95.1422C431.709 95.0345 429.788 95.6352 428.834 96.041C427.387 96.6567 427.296 97.1296 428.624 97.1296C429.309 97.1296 429.605 97.2566 429.605 97.5507C429.605 97.9824 428.35 98.1531 426.266 98.0047C425.359 97.94 422.769 98.4238 422.176 98.7688C421.733 99.0265 423.148 99.317 424.995 99.3474C426.196 99.3673 427.219 99.1696 428.483 98.6736C429.467 98.2876 430.533 97.9699 430.85 97.9675C431.311 97.9639 431.345 97.9107 431.021 97.7053C430.797 97.5635 430.513 97.5097 430.39 97.5858C430.267 97.6619 430.166 97.6047 430.166 97.4588C430.166 97.2074 430.78 97.03 432.922 96.662C433.435 96.5739 433.923 96.324 434.007 96.1067C434.13 95.7837 434.238 95.777 434.599 96.0697C434.967 96.3696 435.012 96.3559 434.874 95.9855C434.753 95.6619 434.871 95.5558 435.312 95.59C435.644 95.6158 436.334 95.5223 436.846 95.3823C437.492 95.2057 437.9 95.2299 438.178 95.4612C438.404 95.6488 438.58 95.6736 438.58 95.5178C438.58 95.2081 440.717 94.3224 441.464 94.3224C441.729 94.3224 441.945 94.1497 441.945 93.9386C441.945 93.6528 441.569 93.5748 440.473 93.633C439.663 93.676 438.685 93.7995 438.299 93.9074V93.9074ZM426.762 104.088C426.965 104.156 427.264 104.077 427.427 103.914C427.635 103.706 427.525 103.669 427.059 103.792C426.679 103.891 426.552 104.018 426.762 104.088ZM88.0084 105.2C88.0084 105.316 88.3918 105.438 88.8599 105.471C89.3469 105.505 89.6394 105.415 89.5439 105.26C89.3484 104.943 88.0076 104.891 88.0084 105.2ZM425.959 106.969L425.258 106.991L425.912 107.253C426.651 107.549 427.923 107.321 427.923 106.892C427.923 106.735 427.64 106.684 427.291 106.778C426.944 106.871 426.345 106.957 425.959 106.969ZM90.2515 106.908C90.2515 107.037 90.4408 107.142 90.6722 107.142C90.9036 107.142 91.0929 107.037 91.0929 106.908C91.0929 106.779 90.9036 106.674 90.6722 106.674C90.4408 106.674 90.2515 106.779 90.2515 106.908ZM89.0771 106.866C89.2795 106.947 89.5215 106.937 89.6147 106.844C89.7079 106.751 89.5422 106.684 89.2466 106.696C88.9198 106.71 88.8534 106.776 89.0771 106.866V106.866ZM421.139 107.427C421.341 107.509 421.583 107.499 421.676 107.405C421.77 107.312 421.604 107.246 421.308 107.258C420.982 107.271 420.915 107.338 421.139 107.427V107.427ZM452.603 107.797C452.603 107.952 452.729 108.078 452.883 108.078C453.037 108.078 453.164 107.952 453.164 107.797C453.164 107.643 453.037 107.516 452.883 107.516C452.729 107.516 452.603 107.643 452.603 107.797ZM445.311 108.533C445.311 108.848 445.838 108.572 445.988 108.178C446.136 107.793 446.095 107.776 445.738 108.073C445.503 108.268 445.311 108.475 445.311 108.533ZM442.506 108.499C442.506 108.731 442.556 108.92 442.617 108.92C442.677 108.92 442.799 108.731 442.888 108.499C442.977 108.267 442.927 108.078 442.778 108.078C442.629 108.078 442.506 108.267 442.506 108.499ZM75.3347 118.095C75.5371 118.176 75.779 118.166 75.8722 118.073C75.9654 117.979 75.7998 117.913 75.5041 117.925C75.1774 117.939 75.1109 118.005 75.3347 118.095V118.095ZM333.561 123.779C333.472 123.923 333.514 124.111 333.655 124.198C333.795 124.285 333.983 124.168 334.071 123.937C334.246 123.482 333.824 123.352 333.561 123.779ZM466.681 3.29805C466.843 3.49104 466.865 3.65279 466.73 3.65747C466.596 3.66205 466.721 3.80325 467.01 3.97099C467.75 4.40131 467.094 4.77017 465.644 4.73955C464.887 4.72359 464.704 4.65656 465.083 4.53331C465.618 4.35939 466.016 3.64473 465.574 3.65277C464.75 3.66783 464.156 4.03468 464.284 4.44858C464.409 4.85269 464.376 4.84915 464.023 4.42093C463.544 3.839 461.41 3.73192 461.226 4.28056C461.132 4.55923 461.018 4.55734 460.672 4.2713C460.126 3.82039 459.804 2.72472 460.267 2.89595C460.448 2.96266 460.555 3.18741 460.505 3.39537C460.441 3.65981 460.57 3.63213 460.933 3.30331C461.348 2.92787 461.949 2.84464 463.92 2.89012C465.487 2.92627 466.495 3.07512 466.681 3.29797L466.681 3.29805ZM470.531 3.91679C470.905 4.1479 470.725 4.77184 470.285 4.77184C469.965 4.77184 469.684 3.97914 469.947 3.81682C470.063 3.74486 470.326 3.78986 470.531 3.91679ZM464.597 6.17545C464.908 6.67262 464.875 6.74179 464.314 6.77965C463.966 6.80315 463.492 6.84303 463.26 6.86826C462.512 6.94981 462.371 6.6933 462.865 6.14757C463.488 5.45816 464.157 5.46892 464.597 6.17545ZM294.705 8.2643C294.705 8.33239 294.579 8.46617 294.425 8.5616C294.27 8.65702 294.144 8.6013 294.144 8.4378C294.144 8.27429 294.27 8.1405 294.425 8.1405C294.579 8.1405 294.705 8.19621 294.705 8.2643ZM291.414 8.45606C291.224 8.6479 290.998 8.73417 290.912 8.64774C290.825 8.5613 290.981 8.40434 291.257 8.29891C291.657 8.14658 291.689 8.17881 291.414 8.45606ZM441.945 9.22903C441.945 9.36452 441.751 9.63708 441.513 9.83472C441.177 10.1141 441.005 10.1191 440.744 9.85739C440.482 9.59566 440.501 9.46181 440.826 9.256C441.355 8.92132 441.945 8.90708 441.945 9.22904V9.22903ZM125.309 11.7899C125.309 11.9443 125.127 12.0706 124.905 12.0706C124.682 12.0706 124.422 11.9443 124.327 11.7899C124.232 11.6355 124.414 11.5092 124.731 11.5092C125.049 11.5092 125.309 11.6355 125.309 11.7899ZM130.077 12.0881C130.077 12.4076 129.323 12.4402 129.131 12.1289C129.055 12.0066 129.237 11.8881 129.535 11.8656C129.833 11.8431 130.077 11.9433 130.077 12.0881ZM408.208 12.541C408.46 13.1994 408.076 13.296 407.106 12.8177C406.601 12.5682 406.313 12.3451 406.468 12.3219C407.649 12.144 408.076 12.1977 408.208 12.541ZM165.695 13.1935C165.695 13.3479 165.639 13.4742 165.571 13.4742C165.503 13.4742 165.369 13.3479 165.274 13.1935C165.179 13.0391 165.234 12.9128 165.398 12.9128C165.561 12.9128 165.695 13.0391 165.695 13.1935ZM169.738 13.4366C169.859 13.6322 169.882 13.8681 169.789 13.9608C169.538 14.212 169.265 13.8425 169.4 13.4354C169.495 13.1502 169.561 13.1504 169.738 13.437V13.4366ZM168.71 13.3794C169.284 13.6113 169.107 13.9954 168.499 13.8363C168.191 13.7555 167.938 13.5779 167.938 13.4415C167.938 13.1739 168.157 13.1563 168.71 13.3794ZM34.2535 14.7843C34.5762 15.1073 34.4577 15.4393 34.0198 15.4393C33.7884 15.4393 33.5991 15.2498 33.5991 15.0182C33.5991 14.5799 33.9308 14.4613 34.2535 14.7843ZM382.312 16.5039C382.388 16.6263 382.203 16.745 381.902 16.7677C381.601 16.7903 381.428 16.6903 381.517 16.5452C381.716 16.2234 382.126 16.2021 382.312 16.5039ZM379.784 16.9861C379.696 17.2161 379.416 17.4141 379.163 17.426C378.91 17.4379 378.134 17.5045 377.44 17.574C376.53 17.6652 376.295 17.6213 376.599 17.4164C376.946 17.182 376.95 17.1315 376.622 17.1279C376.404 17.1254 376.303 17.0449 376.4 16.9487C376.496 16.8525 377.333 16.7274 378.259 16.6708C379.663 16.5851 379.918 16.6377 379.784 16.9861ZM494.239 17.6657C494.446 18.0016 493.919 18.3344 493.545 18.1033C493.231 17.9093 493.437 17.4044 493.83 17.4044C493.966 17.4044 494.15 17.5219 494.239 17.6657ZM491.586 24.9673C491.586 25.1126 491.462 25.3086 491.309 25.403C491.15 25.5013 491.103 25.3886 491.199 25.1388C491.385 24.6525 491.586 24.5635 491.586 24.9673ZM489.53 25.1119C489.53 25.3367 489.422 25.4543 489.291 25.3732C489.16 25.2922 489.126 25.1082 489.214 24.9645C489.441 24.5972 489.53 24.6385 489.53 25.1119ZM0.785522 61.7586C1.01691 61.9083 1.08002 62.0307 0.92572 62.0307C0.771484 62.0307 0.455963 61.9083 0.224609 61.7586C-0.0067749 61.6089 -0.0698242 61.4865 0.0844116 61.4865C0.238647 61.4865 0.554138 61.6089 0.785522 61.7586ZM461.577 82.5918C461.577 82.7134 461.325 82.8128 461.017 82.8128C460.708 82.8128 460.456 82.6943 460.456 82.5495C460.456 82.4047 460.708 82.3053 461.017 82.3285C461.325 82.3518 461.577 82.4703 461.577 82.5918ZM449.833 86.7145L450.49 87.2475L448.812 87.4706C447.889 87.5932 446.471 87.7007 445.662 87.7095C444.852 87.7183 444.19 87.8114 444.189 87.9164C444.189 88.135 442.519 87.6997 442.258 87.4131C442.163 87.3089 442.475 87.2977 442.951 87.3881C443.483 87.4893 444.13 87.3861 444.634 87.12C445.083 86.8821 446.114 86.6752 446.924 86.6602C447.733 86.6453 448.396 86.5314 448.396 86.4073C448.396 86.0048 449.158 86.1679 449.833 86.7145V86.7145ZM453.368 86.6318C453.275 86.7251 453.033 86.7351 452.831 86.6539C452.607 86.5643 452.673 86.4978 453 86.4843C453.296 86.4722 453.461 86.5385 453.368 86.6318V86.6318ZM458.47 90.5093C458.482 90.8052 458.416 90.971 458.323 90.8777C458.23 90.7845 458.22 90.5423 458.301 90.3397C458.39 90.1157 458.457 90.1823 458.47 90.5093H458.47ZM450.811 92.8688C450.732 92.9956 450.927 93.3208 451.242 93.5913C451.807 94.0753 451.788 94.0963 450.081 94.9046C448.024 95.8781 447.835 95.9 447.835 95.1646C447.835 94.8187 448.023 94.6015 448.326 94.5989C448.724 94.5953 448.741 94.5469 448.42 94.3432C448.202 94.2049 447.791 94.1364 447.508 94.191C447.225 94.2456 446.994 94.1615 446.994 94.0041C446.994 93.8467 447.404 93.7405 447.905 93.7679C448.406 93.7954 449.069 93.8031 449.378 93.7851C449.845 93.7578 449.868 93.7069 449.518 93.4802C449.158 93.2477 449.168 93.2075 449.588 93.2038C449.858 93.2013 450.079 93.0731 450.079 92.9188C450.079 92.7644 450.275 92.638 450.516 92.638C450.756 92.638 450.889 92.7418 450.811 92.8687V92.8688ZM447.225 95.134C447.507 95.3084 447.496 95.4255 447.172 95.6943C446.718 96.0713 446.357 95.742 446.669 95.2362C446.78 95.0559 447.025 95.0108 447.225 95.134ZM456.95 106.955C457.045 107.109 456.934 107.236 456.703 107.236C456.471 107.236 456.204 107.109 456.109 106.955C456.013 106.801 456.124 106.674 456.356 106.674C456.587 106.674 456.855 106.801 456.95 106.955ZM451.206 108.212C450.802 108.699 450.64 108.75 450.64 108.389C450.64 108.251 450.847 108.058 451.1 107.961C451.485 107.813 451.502 107.854 451.206 108.212ZM54.8349 112.742C54.5061 113.071 52.7104 113.329 52.3481 113.099C52.1396 112.967 52.0953 112.844 52.2495 112.827C53.759 112.653 54.9628 112.614 54.8349 112.742ZM56.5375 113.088C56.7707 113.236 56.5963 113.318 56.0467 113.318C55.5779 113.318 55.1943 113.213 55.1943 113.084C55.1943 112.785 56.0647 112.788 56.5375 113.089V113.088ZM63.7483 113.447C64.9489 113.716 67.8634 113.909 73.3093 114.08C75.1743 114.138 76.9701 114.331 77.2998 114.507C77.6587 114.7 78.9151 114.797 80.4295 114.751C81.8211 114.708 82.9596 114.702 82.9596 114.737C82.9596 114.835 81.3278 115.658 81.134 115.658C81.0401 115.658 81.0413 115.531 81.1366 115.377C81.2377 115.213 80.9525 115.096 80.4519 115.096C79.9801 115.096 79.5941 115.222 79.5941 115.377C79.5941 115.531 79.4604 115.658 79.297 115.658C79.1337 115.658 79.0948 115.5 79.2106 115.307C79.3663 115.047 79.3159 115.03 79.0169 115.24C78.7944 115.396 78.36 115.51 78.0515 115.492C77.743 115.475 76.8206 115.441 76.0016 115.418C75.1827 115.396 74.5713 115.282 74.6429 115.166C74.7146 115.051 73.9963 114.974 73.0468 114.997C72.0974 115.02 71.0997 114.92 70.8297 114.776C70.5022 114.602 70.339 114.617 70.339 114.822C70.339 114.991 70.1864 115.035 69.9999 114.92C69.8134 114.804 68.5829 114.675 67.2655 114.633C65.948 114.591 64.87 114.542 64.87 114.523C64.87 114.505 64.239 114.449 63.4677 114.399C62.6965 114.349 62.0339 114.28 61.9953 114.246C61.9295 114.188 61.6406 114.103 61.154 113.998C60.9308 113.951 62.2473 113.135 62.4861 113.173C62.5633 113.186 63.1312 113.309 63.7482 113.447L63.7483 113.447ZM75.1068 114.85C75.1068 114.985 75.3518 115.096 75.6512 115.096C75.9506 115.096 76.2638 114.985 76.3472 114.85C76.4306 114.715 76.1856 114.605 75.8029 114.605C75.42 114.605 75.1068 114.715 75.1068 114.85ZM60.1052 115.662C60.202 115.819 60.3988 115.875 60.5424 115.786C60.686 115.697 60.8035 115.751 60.8035 115.905C60.8035 116.448 60.351 116.457 60.0159 115.92C59.8294 115.621 59.7336 115.377 59.8029 115.377C59.8723 115.377 60.0083 115.505 60.1052 115.662V115.662ZM66.1088 116.757C66.4044 117.053 66.7049 117.236 66.7764 117.165C66.8479 117.093 67.521 116.992 68.2722 116.94C69.5733 116.851 71.1866 117.429 70.7775 117.839C70.4501 118.166 68.5132 118.09 68.0902 117.732C67.657 117.366 66.8678 117.354 66.5143 117.708C66.2166 118.006 64.786 117.941 64.5881 117.62C64.3187 117.184 64.719 116.219 65.1695 116.219C65.3904 116.219 65.8131 116.461 66.1088 116.757V116.757ZM63.2141 116.543C63.3336 116.736 63.2915 116.791 63.1098 116.679C62.9424 116.575 62.7261 116.619 62.6293 116.776C62.368 117.199 62.0188 117.121 62.0188 116.64C62.0188 116.145 62.9234 116.072 63.2141 116.543ZM391.107 118.634C391.013 118.728 390.772 118.737 390.569 118.656C390.345 118.567 390.412 118.5 390.739 118.487C391.034 118.475 391.2 118.541 391.107 118.634V118.634ZM334.53 126.606C334.53 126.76 334.474 126.886 334.406 126.886C334.338 126.886 334.205 126.76 334.109 126.606C334.014 126.451 334.07 126.325 334.233 126.325C334.396 126.325 334.53 126.451 334.53 126.606ZM327.99 126.577C328.443 126.91 328.335 127.389 327.836 127.258C327.518 127.175 327.314 127.289 327.285 127.568C327.259 127.81 327.217 128.199 327.191 128.43C327.166 128.662 326.913 128.867 326.631 128.886C326.348 128.906 326.022 128.948 325.906 128.979C325.79 129.011 325.317 129.139 324.854 129.264C323.825 129.541 323.266 129.954 323.472 130.287C323.556 130.424 323.376 130.536 323.071 130.536C322.767 130.536 322.453 130.378 322.375 130.185C322.276 129.941 322.162 129.926 322.001 130.135C321.589 130.67 320.731 130.837 320.278 130.47C319.914 130.176 319.88 130.183 320.079 130.513C320.261 130.816 320.201 130.867 319.829 130.724C319.56 130.62 319.169 130.536 318.961 130.536C318.752 130.536 318.506 130.296 318.413 130.003C318.304 129.661 318.064 129.518 317.74 129.602C317.024 129.79 317.098 130.484 317.82 130.351C318.39 130.246 318.39 130.25 317.843 130.51C317.534 130.657 316.855 130.786 316.333 130.797C315.811 130.808 314.612 130.94 313.668 131.092C311.223 131.484 305.078 132.172 302.277 132.366C300.966 132.457 299.326 132.582 298.632 132.643C297.169 132.772 294.282 132.977 290.498 133.222C289.033 133.316 287.014 133.463 286.011 133.548C283.601 133.752 279.808 133.768 279.28 133.575C279.049 133.491 278.323 133.324 277.667 133.206C277.012 133.087 276.475 132.897 276.475 132.784C276.475 132.67 276.787 132.265 277.169 131.883C277.733 131.318 278.124 131.194 279.273 131.217C280.113 131.233 280.646 131.129 280.59 130.96C280.538 130.804 279.524 130.666 278.336 130.653C276.471 130.633 275.229 130.27 275.653 129.868C275.842 129.689 279.56 129.511 279.56 129.682C279.56 129.766 280.411 129.794 281.453 129.746C282.494 129.698 284.071 129.773 284.956 129.913C285.84 130.054 286.624 130.109 286.697 130.036C286.771 129.962 287.372 129.876 288.033 129.843C288.695 129.811 289.585 129.686 290.011 129.567C290.472 129.438 290.93 129.47 291.142 129.646C291.338 129.809 292.719 129.971 294.21 130.007C296.056 130.051 296.864 130.168 296.741 130.374C296.642 130.54 296.775 130.502 297.037 130.289C297.364 130.024 297.869 129.96 298.654 130.086C299.403 130.205 299.734 130.169 299.617 129.981C299.419 129.659 299.456 129.653 301.997 129.585C303 129.558 304.104 129.436 304.451 129.315C304.798 129.193 305.082 129.197 305.082 129.324C305.082 129.45 305.398 129.553 305.783 129.553C306.169 129.553 306.484 129.458 306.484 129.343C306.484 129.227 306.681 129.132 306.922 129.132C307.162 129.132 307.293 129.239 307.212 129.369C307.018 129.684 309.899 129.221 310.108 128.904C310.491 128.322 315.739 127.733 315.739 128.272C315.739 128.436 315.873 128.571 316.036 128.571C316.2 128.571 316.261 128.453 316.172 128.309C315.918 127.898 316.564 127.645 316.981 127.992C317.261 128.225 317.393 128.21 317.498 127.936C317.588 127.7 318.05 127.591 318.793 127.633C319.427 127.668 319.946 127.58 319.946 127.435C319.946 126.971 321.387 127.276 321.667 127.799C321.816 128.078 322.06 128.23 322.209 128.138C322.358 128.046 322.415 127.866 322.336 127.738C322.258 127.611 322.378 127.436 322.603 127.349C322.829 127.262 323.089 127.314 323.182 127.464C323.285 127.631 323.644 127.574 324.102 127.318C324.965 126.837 327.648 126.325 327.99 126.577L327.99 126.577ZM332.006 127.852C332.006 128.345 331.838 128.418 331.597 128.029C331.509 127.885 331.564 127.688 331.721 127.591C331.878 127.494 332.006 127.611 332.006 127.852ZM330.949 128.337C330.786 128.5 330.487 128.579 330.285 128.511C330.075 128.441 330.202 128.314 330.581 128.214C331.048 128.092 331.157 128.129 330.949 128.337ZM234.337 129.049C234.684 129.116 234.968 129.268 234.968 129.385C234.968 129.729 233.749 129.542 233.628 129.18C233.568 128.999 233.561 128.869 233.612 128.89C233.664 128.911 233.99 128.983 234.337 129.049H234.337ZM240.156 129.694C239.385 130.025 238.942 130.025 239.455 129.694C239.686 129.544 240.065 129.428 240.296 129.437C240.574 129.447 240.526 129.534 240.156 129.694ZM238.457 129.667C238.544 129.807 238.362 129.856 238.053 129.775C237.398 129.604 237.315 129.413 237.896 129.413C238.118 129.413 238.371 129.527 238.457 129.667ZM274.562 130.303C275.004 130.747 274.803 130.778 271.337 130.799C269.304 130.811 267.36 130.875 267.016 130.942C266.672 131.008 266.325 130.957 266.245 130.827C266.165 130.698 265.714 130.618 265.242 130.651C263.965 130.739 263.959 130.331 265.235 130.209C265.838 130.151 266.272 130.202 266.199 130.32C265.968 130.693 266.4 130.555 266.84 130.115C267.317 129.637 268.502 129.551 268.763 129.975C268.879 130.162 269.122 130.158 269.487 129.962C270.108 129.63 270.692 129.856 270.407 130.318C270.282 130.52 270.351 130.539 270.613 130.375C270.829 130.239 271.701 130.06 272.549 129.978C273.763 129.861 274.192 129.93 274.562 130.303V130.303ZM252.076 129.974C252.076 130.129 252.02 130.255 251.952 130.255C251.884 130.255 251.75 130.129 251.655 129.974C251.56 129.82 251.615 129.694 251.779 129.694C251.942 129.694 252.076 129.82 252.076 129.974ZM263.294 130.536C263.547 130.699 263.581 130.81 263.381 130.812C263.197 130.815 262.969 130.69 262.873 130.536C262.658 130.187 262.755 130.187 263.294 130.536ZM153.752 130.574C153.606 130.809 154.675 131.086 154.891 130.869C155.193 130.567 156.44 130.51 156.44 130.798C156.44 130.976 157.237 131.019 158.613 130.915C160.299 130.787 161.007 130.853 161.768 131.209C162.308 131.461 162.537 131.609 162.277 131.538C162.017 131.467 161.765 131.519 161.716 131.653C161.668 131.788 161.439 131.938 161.207 131.989C160.976 132.039 160.694 132.206 160.581 132.36C160.467 132.515 160.373 132.365 160.37 132.026C160.366 131.445 160.324 131.433 159.595 131.815C158.903 132.176 158.783 132.167 158.435 131.728C158.066 131.262 158.055 131.262 158.216 131.728C158.347 132.107 158.23 132.219 157.707 132.219C157.334 132.219 156.9 131.998 156.742 131.728C156.584 131.455 156.453 131.393 156.448 131.587C156.439 131.955 155.598 132.094 155.598 131.728C155.598 131.612 154.644 131.524 153.478 131.533C152.312 131.542 151.295 131.448 151.218 131.323C151.141 131.198 150.807 131.096 150.477 131.096C149.997 131.096 149.947 131.026 150.227 130.745C150.578 130.394 153.964 130.228 153.752 130.573V130.574ZM149.148 130.582C149.148 130.711 149.053 130.825 148.937 130.835C148.822 130.846 148.323 130.907 147.83 130.972C146.72 131.117 146.325 130.636 147.392 130.439C148.448 130.244 149.148 130.302 149.148 130.582ZM169.34 131.518C169.34 131.673 169.814 131.799 170.392 131.799C170.971 131.799 171.537 131.673 171.65 131.518C171.787 131.331 171.858 131.331 171.861 131.518C171.867 131.87 173.547 131.953 173.547 131.602C173.547 131.46 173.662 131.416 173.802 131.502C174.069 131.668 176.536 131.933 179.157 132.078C180.005 132.125 180.699 132.192 180.699 132.227C180.699 132.415 184.389 132.418 184.625 132.23C185.047 131.894 187.851 131.66 187.851 131.961C187.851 132.103 188.04 132.22 188.271 132.22C188.503 132.22 188.692 132.098 188.692 131.949C188.692 131.78 190.668 131.728 193.951 131.811C196.843 131.884 199.514 131.943 199.886 131.941C200.258 131.938 200.984 132.055 201.498 132.197C202.061 132.352 202.435 132.353 202.435 132.199C202.435 131.944 203.415 131.986 203.682 132.252C203.758 132.329 205.035 132.347 206.518 132.292C208.305 132.226 209.348 132.303 209.611 132.521C209.919 132.778 210.008 132.765 210.011 132.465C210.014 132.222 210.091 132.188 210.222 132.373C210.345 132.549 211.941 132.68 214.214 132.701C216.296 132.72 222.606 132.809 228.237 132.897C233.867 132.985 241.092 133.074 244.293 133.095C247.494 133.115 250.113 133.211 250.113 133.308C250.113 133.404 250.808 133.483 251.656 133.483C252.504 133.483 253.198 133.389 253.197 133.273C253.197 133.157 253.331 133.062 253.494 133.062C253.658 133.062 253.713 133.189 253.618 133.343C253.523 133.497 253.642 133.624 253.882 133.624C254.122 133.624 254.319 133.75 254.319 133.904C254.319 134.059 254.453 134.185 254.616 134.185C254.78 134.185 254.835 134.059 254.74 133.904C254.638 133.739 254.946 133.625 255.495 133.628C256.197 133.632 256.32 133.698 256.002 133.904C255.691 134.105 255.678 134.178 255.952 134.181C256.237 134.184 256.226 134.282 255.902 134.606C255.67 134.838 255.22 135.027 254.9 135.027C254.581 135.027 254.319 135.162 254.319 135.327C254.319 135.505 254.077 135.55 253.723 135.437C253.322 135.31 253.19 135.349 253.319 135.559C253.425 135.73 253.436 135.869 253.345 135.869C253.254 135.869 253.083 135.61 252.966 135.292L252.753 134.715L252.013 135.297C251.506 135.696 251.212 135.78 251.079 135.564C250.94 135.34 250.815 135.359 250.648 135.629C250.457 135.938 248.533 136.008 240.377 135.999C234.857 135.993 228.068 135.908 225.292 135.809C222.515 135.709 217.909 135.555 215.055 135.465C204.751 135.142 202.096 135.025 201.866 134.882C201.35 134.563 199.09 134.28 198.747 134.491C198.537 134.622 198.291 134.575 198.165 134.381C198.003 134.13 197.877 134.152 197.671 134.466C197.519 134.697 197.393 134.761 197.39 134.606C197.387 134.429 195.653 134.338 192.688 134.359C188.003 134.393 179.998 133.94 179.998 133.641C179.997 133.554 179.019 133.498 177.824 133.515C175.776 133.545 171.057 133.16 170.22 132.896C169.912 132.798 169.906 132.693 170.19 132.351C170.476 132.005 170.469 131.949 170.151 132.05C169.937 132.118 169.409 132.251 168.979 132.345C168.496 132.451 168.258 132.649 168.358 132.86C168.447 133.048 168.373 133.005 168.193 132.763C167.929 132.408 167.568 132.364 166.309 132.535C165.423 132.656 164.54 132.633 164.26 132.483C163.99 132.339 163.413 132.203 162.979 132.182C162.251 132.147 162.242 132.134 162.865 132.016C163.389 131.917 163.452 131.832 163.146 131.637C162.712 131.363 163.077 131.328 167.027 131.271C168.405 131.251 169.34 131.351 169.34 131.518L169.34 131.518ZM250.852 134.043C250.94 134.274 251.125 134.393 251.264 134.307C251.66 134.062 251.556 133.624 251.103 133.624C250.853 133.624 250.754 133.788 250.852 134.043ZM267.209 133.084C266.92 133.623 266.937 133.685 267.334 133.532C267.73 133.38 267.748 133.442 267.463 133.975L267.132 134.595L266.853 133.969C266.533 133.251 265.953 133.146 265.717 133.764C265.628 133.996 265.656 134.185 265.78 134.185C265.904 134.185 266.005 134.376 266.005 134.61C266.005 134.955 265.752 135.001 264.649 134.854C263.723 134.731 263.294 134.775 263.294 134.991C263.294 135.167 262.85 135.308 262.296 135.308C261.641 135.308 261.363 135.202 261.488 134.999C261.624 134.78 261.509 134.782 261.09 135.006C260.601 135.268 260.53 135.249 260.666 134.893C260.756 134.658 260.942 134.466 261.08 134.466C261.218 134.466 261.331 134.339 261.331 134.185C261.331 133.6 260.824 133.938 260.489 134.747C260.099 135.689 260.089 135.695 259.386 135.318C259.031 135.128 258.922 134.831 259.019 134.324C259.095 133.926 259.047 133.637 258.912 133.682C258.777 133.727 258.603 133.641 258.526 133.49C258.443 133.327 259.11 133.196 260.158 133.168C261.778 133.124 261.956 133.178 262.236 133.793C262.538 134.456 263.574 134.747 263.574 134.169C263.574 134.005 263.45 133.948 263.297 134.043C263.141 134.14 263.09 134.032 263.18 133.796C263.274 133.552 263.525 133.449 263.784 133.549C264.072 133.659 264.158 133.607 264.03 133.399C263.804 133.033 264.736 132.764 265.818 132.881C266.204 132.923 266.75 132.845 267.031 132.708C267.49 132.484 267.508 132.523 267.209 133.084V133.084ZM259.537 134.138C259.457 134.267 259.57 134.372 259.788 134.372C260.006 134.372 260.119 134.267 260.04 134.138C259.96 134.01 259.847 133.904 259.788 133.904C259.729 133.904 259.616 134.01 259.537 134.138ZM270.987 133.03C271.071 133.167 270.889 133.345 270.581 133.425C270.209 133.523 270.08 133.721 270.194 134.019C270.288 134.265 270.247 134.466 270.102 134.466C269.717 134.466 269.779 133.549 270.192 133.136C270.61 132.717 270.779 132.694 270.987 133.03ZM269.267 133.811C269.188 134.017 269.087 134.185 269.043 134.185C268.999 134.185 268.898 134.017 268.82 133.811C268.741 133.605 268.841 133.437 269.043 133.437C269.245 133.437 269.346 133.605 269.267 133.811ZM268.185 134.597C267.886 134.824 267.364 135.013 267.027 135.018C266.358 135.028 265.931 134.602 266.35 134.343C266.494 134.254 266.66 134.327 266.719 134.504C266.8 134.747 266.975 134.747 267.426 134.507C268.288 134.045 268.83 134.11 268.185 134.598V134.597ZM271.912 134.635C271.819 134.729 271.577 134.739 271.375 134.658C271.151 134.568 271.217 134.501 271.544 134.488C271.84 134.476 272.005 134.542 271.912 134.635V134.635ZM257.124 134.747C257.483 134.979 257.473 135.019 257.054 135.023C256.784 135.026 256.563 134.901 256.563 134.747C256.563 134.404 256.595 134.404 257.124 134.747ZM258.63 135.174C258.764 135.523 258.692 135.547 258.239 135.305C257.589 134.956 257.528 134.747 258.075 134.747C258.29 134.747 258.54 134.939 258.63 135.174Z" fill="url(#paint0_linear)"/>
<defs>
<linearGradient id="paint0_linear" x1="1.3745e-06" y1="68" x2="508" y2="68" gradientUnits="userSpaceOnUse">
<stop stop-color="#FFCA41"/>
<stop offset="1" stop-color="#FFDA55"/>
</linearGradient>
</defs>
</svg>
