<svg width="325" height="5" viewBox="0 0 325 5" fill="none" xmlns="http://www.w3.org/2000/svg">
<circle cx="2.5" cy="2.5" r="2.5" fill="#C1C6CA"/>
<circle cx="12.5" cy="2.5" r="2.5" fill="#C1C6CA"/>
<circle cx="22.5" cy="2.5" r="2.5" fill="#C1C6CA"/>
<circle cx="32.5" cy="2.5" r="2.5" fill="#C1C6CA"/>
<circle cx="42.5" cy="2.5" r="2.5" fill="#C1C6CA"/>
<circle cx="52.5" cy="2.5" r="2.5" fill="#C1C6CA"/>
<circle cx="62.5" cy="2.5" r="2.5" fill="#C1C6CA"/>
<circle cx="72.5" cy="2.5" r="2.5" fill="#C1C6CA"/>
<circle cx="82.5" cy="2.5" r="2.5" fill="#C1C6CA"/>
<circle cx="92.5" cy="2.5" r="2.5" fill="#C1C6CA"/>
<circle cx="102.5" cy="2.5" r="2.5" fill="#C1C6CA"/>
<circle cx="112.5" cy="2.5" r="2.5" fill="#C1C6CA"/>
<circle cx="122.5" cy="2.5" r="2.5" fill="#C1C6CA"/>
<circle cx="132.5" cy="2.5" r="2.5" fill="#C1C6CA"/>
<circle cx="142.5" cy="2.5" r="2.5" fill="#C1C6CA"/>
<circle cx="152.5" cy="2.5" r="2.5" fill="#C1C6CA"/>
<circle cx="162.5" cy="2.5" r="2.5" fill="#C1C6CA"/>
<circle cx="172.5" cy="2.5" r="2.5" fill="#C1C6CA"/>
<circle cx="182.5" cy="2.5" r="2.5" fill="#C1C6CA"/>
<circle cx="192.5" cy="2.5" r="2.5" fill="#C1C6CA"/>
<circle cx="202.5" cy="2.5" r="2.5" fill="#C1C6CA"/>
<circle cx="212.5" cy="2.5" r="2.5" fill="#C1C6CA"/>
<circle cx="222.5" cy="2.5" r="2.5" fill="#C1C6CA"/>
<circle cx="232.5" cy="2.5" r="2.5" fill="#C1C6CA"/>
<circle cx="242.5" cy="2.5" r="2.5" fill="#C1C6CA"/>
<circle cx="252.5" cy="2.5" r="2.5" fill="#C1C6CA"/>
<circle cx="262.5" cy="2.5" r="2.5" fill="#C1C6CA"/>
<circle cx="272.5" cy="2.5" r="2.5" fill="#C1C6CA"/>
<circle cx="282.5" cy="2.5" r="2.5" fill="#C1C6CA"/>
<circle cx="292.5" cy="2.5" r="2.5" fill="#C1C6CA"/>
<circle cx="302.5" cy="2.5" r="2.5" fill="#C1C6CA"/>
<circle cx="312.5" cy="2.5" r="2.5" fill="#C1C6CA"/>
<circle cx="322.5" cy="2.5" r="2.5" fill="#C1C6CA"/>
</svg>
