<svg width="55" height="24" viewBox="0 0 55 24" fill="none" xmlns="http://www.w3.org/2000/svg">
<g clip-path="url(#clip0)">
<path d="M10.0542 3.0942C9.40971 3.90485 8.37846 4.54424 7.34721 4.4529C7.21831 3.3568 7.72319 2.1922 8.31401 1.47288C8.95854 0.639391 10.0865 0.0456708 10.9996 0C11.107 1.14177 10.688 2.2607 10.0542 3.0942ZM10.9888 4.66984C9.49565 4.5785 8.21733 5.57184 7.50835 5.57184C6.78862 5.57184 5.70366 4.71551 4.52202 4.73834C2.98589 4.76118 1.55718 5.68601 0.772996 7.1589C-0.838332 10.1047 0.354051 14.4662 1.91167 16.8639C2.67436 18.0514 3.58745 19.353 4.79057 19.3073C5.92925 19.2617 6.38042 18.5195 7.75542 18.5195C9.14116 18.5195 9.53862 19.3073 10.7417 19.2845C11.9878 19.2617 12.772 18.0971 13.5347 16.9096C14.4048 15.5623 14.7593 14.2493 14.7808 14.1808C14.7593 14.1579 12.3746 13.1874 12.3531 10.2645C12.3316 7.82112 14.233 6.65652 14.3189 6.58801C13.2447 4.89819 11.5689 4.71551 10.9888 4.66984ZM19.6148 1.35871V19.1589H22.2144V13.0733H25.813C29.1001 13.0733 31.4097 10.6755 31.4097 7.20457C31.4097 3.73359 29.1431 1.35871 25.899 1.35871H19.6148ZM22.2144 3.68792H25.2115C27.4673 3.68792 28.7564 4.9667 28.7564 7.21598C28.7564 9.46527 27.4673 10.7555 25.2007 10.7555H22.2144V3.68792ZM36.1578 19.2959C37.7906 19.2959 39.3052 18.4167 39.9927 17.0238H40.0464V19.1589H42.4527V10.2988C42.4527 7.72978 40.5191 6.07421 37.5435 6.07421C34.7828 6.07421 32.7417 7.75262 32.6665 10.059H35.0083C35.2017 8.96289 36.1578 8.24358 37.4683 8.24358C39.0581 8.24358 39.9497 9.0314 39.9497 10.4814V11.4634L36.7056 11.6689C33.6871 11.863 32.0542 13.176 32.0542 15.4596C32.0542 17.7659 33.7408 19.2959 36.1578 19.2959ZM36.856 17.1836C35.4703 17.1836 34.5894 16.4757 34.5894 15.3911C34.5894 14.2721 35.438 13.6213 37.0601 13.5186L39.9497 13.3245V14.3292C39.9497 15.9962 38.6177 17.1836 36.856 17.1836ZM45.6646 24C48.1998 24 49.3921 22.9724 50.4341 19.8554L54.9996 6.24548H52.357L49.2955 16.7612H49.2417L46.1802 6.24548H43.4624L47.8667 19.2046L47.6304 19.9924C47.233 21.3283 46.5884 21.8421 45.439 21.8421C45.2349 21.8421 44.8374 21.8192 44.6763 21.7964V23.9315C44.8267 23.9772 45.4712 24 45.6646 24Z" fill="#282828"/>
</g>
<defs>
<clipPath id="clip0">
<rect width="55" height="24" fill="white"/>
</clipPath>
</defs>
</svg>
