<svg  width="12" height="10" viewBox="0 0 12 10" fill="none" xmlns="http://www.w3.org/2000/svg">
<path d="M11.3253 4.05899L11.3441 4.06308H3.31422L5.83851 1.53323C5.96212 1.40972 6.02993 1.2424 6.02993 1.06679C6.02993 0.891181 5.96212 0.725035 5.83851 0.60123L5.44573 0.208254C5.32222 0.0847416 5.15764 0.016449 4.98212 0.016449C4.80651 0.016449 4.64183 0.0842539 4.51832 0.207766L0.191198 4.5345C0.0671976 4.6585 -0.000607261 4.82367 -0.000119457 4.99938C-0.000607261 5.17606 0.0671976 5.34133 0.191198 5.46513L4.51832 9.79226C4.64183 9.91567 4.80642 9.98357 4.98212 9.98357C5.15764 9.98357 5.32222 9.91557 5.44573 9.79226L5.83851 9.39928C5.96212 9.27596 6.02993 9.11128 6.02993 8.93567C6.02993 8.76016 5.96212 8.60416 5.83851 8.48074L3.28573 5.93674H11.3343C11.696 5.93674 11.9999 5.62504 11.9999 5.26357V4.70777C11.9999 4.3463 11.687 4.05899 11.3253 4.05899Z" 
fill="currentColor"/>
</svg>
