<svg width="28" height="28" viewBox="0 0 28 28" fill="none" xmlns="http://www.w3.org/2000/svg">
<path fill-rule="evenodd" clip-rule="evenodd" d="M5.83789 1.1666C5.19356 1.1666 4.67122 1.68894 4.67122 2.33326V3.69909C3.31184 4.17956 2.33789 5.476 2.33789 6.99993C2.33789 8.52385 3.31184 9.8203 4.67122 10.3008V25.6666C4.67122 26.3109 5.19356 26.8333 5.83789 26.8333C6.48222 26.8333 7.00456 26.3109 7.00456 25.6666V10.3008C8.36395 9.8203 9.33789 8.52385 9.33789 6.99993C9.33789 5.476 8.36395 4.17956 7.00456 3.69909V2.33326C7.00456 1.68894 6.48222 1.1666 5.83789 1.1666ZM14.0046 1.1666C13.3602 1.1666 12.8379 1.68894 12.8379 2.33326V10.6991C11.4785 11.1796 10.5046 12.476 10.5046 13.9999C10.5046 15.5238 11.4785 16.8203 12.8379 17.3008V25.6666C12.8379 26.3109 13.3602 26.8333 14.0046 26.8333C14.6489 26.8333 15.1712 26.3109 15.1712 25.6666V17.3008C16.5306 16.8203 17.5046 15.5238 17.5046 13.9999C17.5046 12.476 16.5306 11.1796 15.1712 10.6991V2.33326C15.1712 1.68894 14.6489 1.1666 14.0046 1.1666ZM21.0046 2.33326C21.0046 1.68894 21.5269 1.1666 22.1712 1.1666C22.8156 1.1666 23.3379 1.68894 23.3379 2.33326V17.6991C24.6973 18.1795 25.6712 19.476 25.6712 20.9999C25.6712 22.5238 24.6973 23.8203 23.3379 24.3008V25.6666C23.3379 26.3109 22.8156 26.8333 22.1712 26.8333C21.5269 26.8333 21.0046 26.3109 21.0046 25.6666V24.3008C19.6452 23.8203 18.6712 22.5238 18.6712 20.9999C18.6712 19.476 19.6452 18.1795 21.0046 17.6991V2.33326Z" fill="#282828"/>
</svg>
