<svg width="28" height="28" viewBox="0 0 28 28" fill="none" xmlns="http://www.w3.org/2000/svg">
<path fill-rule="evenodd" clip-rule="evenodd" d="M9.1477 2.26532C9.56187 1.77173 10.2978 1.70735 10.7913 2.12152C11.2849 2.53568 11.3493 3.27157 10.9351 3.76515L7.18555 8.23375C6.77138 8.72733 6.03549 8.79171 5.54191 8.37754C5.04833 7.96338 4.98394 7.22749 5.39811 6.73391L9.1477 2.26532ZM1.16699 11.6665C1.16699 11.0222 1.68933 10.4999 2.33366 10.4999H25.667C26.3113 10.4999 26.8337 11.0222 26.8337 11.6665V15.1665C26.8337 15.8109 26.3113 16.3332 25.667 16.3332H24.0761L22.3412 25.8753C22.2403 26.43 21.7571 26.8332 21.1933 26.8332H6.80734C6.2435 26.8332 5.76035 26.43 5.65949 25.8753L3.92457 16.3332H2.33366C1.68933 16.3332 1.16699 15.8109 1.16699 15.1665V11.6665ZM8.31169 13.9999C7.61537 13.9999 7.07661 14.6102 7.16298 15.3011L8.04023 22.3191C8.11265 22.8984 8.60512 23.3332 9.18896 23.3332C9.88528 23.3332 10.424 22.7229 10.3377 22.0319L9.46042 15.0139C9.388 14.4346 8.89553 13.9999 8.31169 13.9999ZM12.8337 15.1665C12.8337 14.5222 13.356 13.9999 14.0003 13.9999C14.6447 13.9999 15.167 14.5222 15.167 15.1665V22.1665C15.167 22.8109 14.6447 23.3332 14.0003 23.3332C13.356 23.3332 12.8337 22.8109 12.8337 22.1665V15.1665ZM19.689 13.9999C19.1051 13.9999 18.6126 14.4346 18.5402 15.0139L17.663 22.0319C17.5766 22.7229 18.1154 23.3332 18.8117 23.3332C19.3956 23.3332 19.888 22.8984 19.9605 22.3191L20.8377 15.3011C20.924 14.6102 20.3853 13.9999 19.689 13.9999ZM17.2091 2.1216C16.7155 2.53576 16.6512 3.27165 17.0654 3.76523L20.8149 8.23383C21.2291 8.72742 21.965 8.79179 22.4585 8.37763C22.9522 7.96346 23.0166 7.22757 22.6024 6.73399L18.8528 2.2654C18.4386 1.77181 17.7027 1.70743 17.2091 2.1216Z" fill="#282828"/>
</svg>
