<svg  viewBox="0 0 28 28" fill="none" xmlns="http://www.w3.org/2000/svg">
<path d="M26.2526 6.65822C26.7081 6.20261 26.7081 5.46392 26.2526 5.0083C25.797 4.55269 25.0582 4.55269 24.6027 5.0083L26.2526 6.65822ZM9.7534 21.5074L8.92843 22.3324C9.14723 22.5513 9.44397 22.6741 9.7534 22.6741C10.0628 22.6741 10.3596 22.5513 10.5784 22.3324L9.7534 21.5074ZM3.15374 13.2579C2.69812 12.8022 1.95943 12.8022 1.50382 13.2579C1.04821 13.7135 1.04821 14.4522 1.50382 14.9078L3.15374 13.2579ZM24.6027 5.0083L8.92843 20.6825L10.5784 22.3324L26.2526 6.65822L24.6027 5.0083ZM10.5784 20.6825L3.15374 13.2579L1.50382 14.9078L8.92843 22.3324L10.5784 20.6825Z" fill="#282828"/>
</svg>
