<svg width="34" height="28" viewBox="0 0 34 28" fill="none" xmlns="http://www.w3.org/2000/svg">
<path fill-rule="evenodd" clip-rule="evenodd" d="M15.1477 2.26532C15.5619 1.77173 16.2978 1.70735 16.7913 2.12152C17.2849 2.53568 17.3493 3.27157 16.9351 3.76515L13.1855 8.23375C12.7714 8.72733 12.0355 8.79171 11.5419 8.37754C11.0483 7.96338 10.9839 7.22749 11.3981 6.73391L15.1477 2.26532ZM7.16699 11.6665C7.16699 11.0222 7.68933 10.4999 8.33366 10.4999H31.667C32.3113 10.4999 32.8337 11.0222 32.8337 11.6665V15.1665C32.8337 15.8109 32.3113 16.3332 31.667 16.3332H30.0761L28.3412 25.8753C28.2403 26.43 27.7571 26.8332 27.1933 26.8332H12.8073C12.2435 26.8332 11.7603 26.43 11.6595 25.8753L9.92457 16.3332H8.33366C7.68933 16.3332 7.16699 15.8109 7.16699 15.1665V11.6665ZM14.3117 13.9999C13.6154 13.9999 13.0766 14.6102 13.163 15.3011L14.0402 22.3191C14.1126 22.8984 14.6051 23.3332 15.189 23.3332C15.8853 23.3332 16.424 22.7229 16.3377 22.0319L15.4604 15.0139C15.388 14.4346 14.8955 13.9999 14.3117 13.9999ZM18.8337 15.1665C18.8337 14.5222 19.356 13.9999 20.0003 13.9999C20.6447 13.9999 21.167 14.5222 21.167 15.1665V22.1665C21.167 22.8109 20.6447 23.3332 20.0003 23.3332C19.356 23.3332 18.8337 22.8109 18.8337 22.1665V15.1665ZM25.689 13.9999C25.1051 13.9999 24.6126 14.4346 24.5402 15.0139L23.663 22.0319C23.5766 22.7229 24.1154 23.3332 24.8117 23.3332C25.3956 23.3332 25.888 22.8984 25.9605 22.3191L26.8377 15.3011C26.924 14.6102 26.3853 13.9999 25.689 13.9999ZM23.2091 2.1216C22.7155 2.53576 22.6512 3.27165 23.0654 3.76523L26.8149 8.23383C27.2291 8.72742 27.965 8.79179 28.4585 8.37763C28.9522 7.96346 29.0166 7.22757 28.6024 6.73399L24.8528 2.2654C24.4386 1.77181 23.7027 1.70743 23.2091 2.1216Z" fill="#282828"/>
<circle cx="9" cy="11" r="8" fill="url(#paint0_linear)"/>
<path d="M9.65243 14.1334H8.78329V8.11288L7.28915 8.78183V7.96152L9.51571 6.98984H9.65243V14.1334Z" fill="#282828"/>
<defs>
<linearGradient id="paint0_linear" x1="1" y1="11.0516" x2="17" y2="11.0516" gradientUnits="userSpaceOnUse">
<stop stop-color="#FFCA41"/>
<stop offset="1" stop-color="#FFDA55"/>
</linearGradient>
</defs>
</svg>
