<svg width="28" height="28" viewBox="0 0 28 28" fill="none" xmlns="http://www.w3.org/2000/svg">
<path fill-rule="evenodd" clip-rule="evenodd" d="M14.0044 13.0185C17.3532 13.0185 20.068 10.3654 20.068 7.09256C20.068 3.81975 17.3532 1.1666 14.0044 1.1666C10.6557 1.1666 7.94102 3.81975 7.94102 7.09256C7.94102 10.3654 10.6557 13.0185 14.0044 13.0185ZM25.6713 21.6683C23.6671 18.8562 20.8425 15.6568 17.5944 14.1763C16.445 14.4923 15.2426 14.6936 14.0047 14.6936C12.7667 14.6936 11.5642 14.4923 10.4148 14.1763C7.16668 15.6566 4.34208 18.8559 2.33789 21.6681C5.05131 24.8161 9.2686 26.8385 14.0047 26.8385C18.7408 26.8385 22.9579 24.8162 25.6713 21.6683Z" fill="#282828"/>
</svg>
