<svg width="91" height="90" viewBox="0 0 91 90" fill="none" xmlns="http://www.w3.org/2000/svg">
<path d="M42.092 37.5C42.092 36.672 41.42 36 40.5921 36H34.5922C33.7642 36 33.0922 36.672 33.0922 37.5C33.0922 38.3279 33.7642 38.9999 34.5922 38.9999H36.0921C36.0921 39.8278 36.7641 40.4998 37.592 40.4998C38.42 40.4998 39.092 39.8278 39.092 38.9999H40.5919C41.42 38.9999 42.092 38.3279 42.092 37.5Z" fill="black"/>
<path d="M21.4671 44.8583C22.2695 47.2253 24.4866 53.6438 25.751 56.1712C28.133 60.9366 34.8876 69.0007 45.092 69.0007C55.2964 69.0007 62.0509 60.9367 64.4343 56.1712C65.6973 53.6436 67.9143 47.2252 68.7183 44.8583C70.6563 44.3573 72.0917 42.5933 72.0917 40.5008V34.5009C72.0917 32.545 70.8377 30.8769 69.0916 30.2574V22.5009C69.0916 16.5789 65.9731 5.63952 54.4396 4.58343C54.4155 3.87539 54.1802 3.30551 53.9206 2.88398C52.4475 0.500576 48.3061 0.00100708 45.0916 0.00100708C18.4007 0.00100708 18.0917 25.2459 18.0917 25.501C18.0917 26.3289 18.7622 26.9995 19.5903 26.9995H19.5918C20.4184 26.9995 21.0904 26.3305 21.0918 25.5025C21.0948 24.5846 21.4323 3.00105 45.0916 3.00105C49.3336 3.00105 51.0332 3.91898 51.3675 4.46197C51.4171 4.53843 51.5429 4.74392 51.2504 5.3305C51.0179 5.79544 51.0434 6.34756 51.3164 6.79C51.5893 7.23104 52.0724 7.50104 52.5913 7.50104C65.8901 7.50104 66.0897 21.8904 66.0912 22.5009V31.5009C66.0912 32.3288 66.7633 33.0008 67.5912 33.0008C68.4177 33.0008 69.0911 33.6742 69.0911 34.5008V40.5007C69.0911 41.3272 68.4177 42.0006 67.5912 42.0006C66.9462 42.0006 66.3732 42.4132 66.1677 43.0266C66.1392 43.1151 63.1858 51.9591 61.7502 54.8301C61.5222 55.2861 56.0382 66.0006 45.0913 66.0006C34.1444 66.0006 28.6618 55.2861 28.4338 54.8301C26.9984 51.9591 24.0433 43.1152 24.0148 43.0266C23.8107 42.4132 23.2379 42.0006 22.5914 42.0006C21.7648 42.0006 21.0914 41.3272 21.0914 40.5007V34.5008C21.0914 34.0942 21.2549 33.7252 21.5173 33.4552C22.1143 34.7947 23.3818 36.0007 25.5914 36.0007C26.1599 36.0007 26.679 35.6797 26.9338 35.1712C28.2583 32.5237 29.6203 29.7967 29.9922 26.9707C37.6677 26.6616 49.1486 23.9256 54.5562 19.7452C55.9977 24.9771 60.3116 29.3421 60.5306 29.5611C61.1172 30.1477 62.0666 30.1477 62.6516 29.5611C63.2381 28.9747 63.2381 28.0266 62.6516 27.4402C62.596 27.3846 57.0911 21.8182 57.0911 16.5006C57.0911 15.8272 56.6411 15.2347 55.9916 15.0547C55.3407 14.8747 54.6521 15.1507 54.3057 15.7281C51.7483 19.9895 37.6512 24.0005 28.5913 24.0005C27.7634 24.0005 27.0913 24.6725 27.0913 25.5004C27.0913 27.8374 26.0143 30.2644 24.7559 32.8129C24.246 32.531 24.105 31.9774 24.0915 31.5004C24.0915 30.6724 23.4195 30.0004 22.5915 30.0004C20.1106 30.0004 18.0916 32.0194 18.0916 34.5004V40.5003C18.0921 42.5933 19.5291 44.3573 21.4671 44.8583Z" fill="black"/>
<path d="M45.0919 58.4999C48.6124 58.4999 50.4544 56.7585 50.6524 56.5604C51.2314 55.9814 51.2298 55.0545 50.6613 54.4663C50.0913 53.8767 49.1463 53.8618 48.5479 54.4229C48.5013 54.4663 47.3703 55.4999 45.0919 55.4999C42.8465 55.4999 41.7153 54.4964 41.6374 54.4245C41.051 53.853 40.112 53.859 39.5314 54.4394C38.9464 55.026 38.9464 55.974 39.5314 56.5604C39.7309 56.7583 41.5729 58.4999 45.0919 58.4999Z" fill="black"/>
<path d="M90.047 88.1353L88.5154 82.0259C87.7445 79.713 83.1919 72.2729 57.092 72.0704V70.5C57.092 69.672 56.42 69 55.5921 69C54.7642 69 54.0921 69.672 54.0921 70.5V73.5C54.0921 73.5106 54.0981 73.5195 54.0981 73.5301C54.0981 73.539 54.0921 73.5466 54.0921 73.5571C54.0862 74.4721 53.7847 82.5001 45.0922 82.5001C36.3997 82.5001 36.0982 74.4167 36.0922 73.5002V70.5001C36.0922 69.6722 35.4202 69.0002 34.5923 69.0002C33.7643 69.0002 33.0923 69.6722 33.0923 70.5001V72.0152C13.6568 72.1678 3.92173 75.2698 1.63728 82.1352L0.137349 88.1351C-0.0635682 88.9392 0.425278 89.7536 1.2293 89.9546C2.03033 90.1556 2.8463 89.6667 3.04722 88.8641L4.51569 82.9737C6.25873 77.7462 15.6442 75.1348 33.1911 75.0042C33.7357 79.2987 36.6561 85.4997 45.0922 85.4997C53.5267 85.4997 56.4471 79.3363 56.993 75.0643C77.552 75.2158 84.701 80.0682 85.637 82.8642L87.137 88.8641C87.308 89.5451 87.9185 89.9996 88.5905 89.9996C88.712 89.9996 88.8334 89.9861 88.9565 89.9546C89.7605 89.7537 90.2479 88.9393 90.047 88.1353Z" fill="black"/>
<path d="M52.5921 40.5C53.42 40.5 54.092 39.828 54.092 39.0001H55.592C56.4199 39.0001 57.0919 38.3281 57.0919 37.5002C57.0919 36.6722 56.4199 36.0002 55.592 36.0002H49.592C48.7641 36.0002 48.0921 36.6722 48.0921 37.5002C48.0921 38.3281 48.7641 39.0001 49.592 39.0001H51.092C51.092 39.828 51.764 40.5 52.5921 40.5Z" fill="black"/>
</svg>
