<svg width="17" height="15" viewBox="0 0 17 15" fill="none" xmlns="http://www.w3.org/2000/svg">
<path d="M0.955711 8.83312L0.929174 8.82731L12.3048 8.82731L8.72872 12.4113C8.55361 12.5862 8.45755 12.8233 8.45755 13.0721C8.45755 13.3208 8.55361 13.5562 8.72872 13.7316L9.28516 14.2883C9.46013 14.4633 9.6933 14.56 9.94194 14.56C10.1907 14.56 10.424 14.464 10.599 14.289L16.7291 8.15947C16.9048 7.98381 17.0008 7.74982 17.0001 7.5009C17.0008 7.2506 16.9048 7.01647 16.7291 6.84108L10.599 0.710986C10.424 0.536148 10.1909 0.439953 9.94194 0.439953C9.6933 0.439953 9.46013 0.536286 9.28516 0.710986L8.72872 1.2677C8.55361 1.4424 8.45755 1.6757 8.45755 1.92448C8.45755 2.17312 8.55361 2.39412 8.72872 2.56896L12.3452 6.17296L0.942995 6.17296C0.430645 6.17296 0.000118256 6.61455 0.000118256 7.12662V7.91401C0.000118256 8.42608 0.443361 8.83312 0.955711 8.83312Z" fill="white"/>
</svg>
