<svg width="21" height="20" viewBox="0 0 21 20" fill="none" xmlns="http://www.w3.org/2000/svg">
<path d="M10.0397 0C4.5258 0 0.0397949 4.48591 0.0397949 9.99995C0.0397949 15.514 4.5258 20 10.0397 20C15.5537 20 20.0397 15.514 20.0397 9.99995C20.0397 4.48591 15.5538 0 10.0397 0ZM15.7819 8.31087L9.49943 14.5933C9.2323 14.8605 8.8772 15.0075 8.49947 15.0075C8.12173 15.0075 7.76663 14.8605 7.4995 14.5933L4.2976 11.3914C4.03047 11.1243 3.88334 10.7692 3.88334 10.3915C3.88334 10.0136 4.03047 9.65852 4.2976 9.39139C4.56462 9.12426 4.91972 8.97713 5.29756 8.97713C5.6753 8.97713 6.0305 9.12426 6.29752 9.3915L8.49936 11.5932L13.7818 6.31084C14.0489 6.04371 14.404 5.89669 14.7817 5.89669C15.1595 5.89669 15.5146 6.04371 15.7817 6.31084C16.3333 6.86242 16.3333 7.7595 15.7819 8.31087Z" fill="url(#paint0_linear)"/>
<defs>
<linearGradient id="paint0_linear" x1="0.0397949" y1="10" x2="20.0397" y2="10" gradientUnits="userSpaceOnUse">
<stop stop-color="#54B43C"/>
<stop offset="1" stop-color="#A6D53B"/>
</linearGradient>
</defs>
</svg>
