<svg width="85" height="24" viewBox="0 0 85 24" fill="none" xmlns="http://www.w3.org/2000/svg">
<path d="M15.2344 4.90487C14.9561 4.35965 14.516 3.90996 13.9697 3.57228C13.3998 3.2313 12.727 2.99246 11.9581 2.8508C11.1757 2.71243 10.2719 2.64984 9.22472 2.63995L4.39036 2.64325C3.88787 2.64984 3.3955 3.03199 3.27747 3.50639L0.0247731 17.3463C-0.0932614 17.8141 0.222059 18.2061 0.724549 18.2061H3.03971C3.5422 18.2061 4.03963 17.8256 4.15092 17.3463L4.94512 13.986C5.05136 13.5182 5.5471 13.1278 6.05465 13.1278H6.71733C9.54847 13.1245 11.7405 12.5595 13.3155 11.4278C14.8988 10.2946 15.6795 8.79724 15.6795 6.94248C15.6778 6.1304 15.5412 5.44846 15.2344 4.90487ZM10.2415 9.42648C9.54172 9.92724 8.56878 10.1776 7.31424 10.1776H6.74768C6.2435 10.1776 5.93493 9.78887 6.04453 9.31447L6.74093 6.37584C6.83873 5.90473 7.34628 5.51434 7.84371 5.51764L8.60251 5.5127C9.48777 5.5127 10.1639 5.66259 10.6158 5.9525C11.0627 6.23912 11.2869 6.6954 11.2836 7.29993C11.2971 8.21907 10.9379 8.92573 10.2415 9.42648Z" fill="#282828"/>
<path d="M81.2335 3.72375L81.0885 3.76657L80.8946 3.79293L80.6568 3.75669L80.5354 3.64139L80.4798 3.46019L80.4764 3.1884V2.18195H81.2504V1.87063H80.4764V1.24304H80.0937V1.87063H79.834V2.18195H80.0937V3.35312L80.2724 3.93294L80.7985 4.11743L81.0194 4.09931L81.2538 4.05484V3.72375H81.2335Z" fill="#282828"/>
<path d="M84.8212 2.02974L84.2681 1.80737L83.86 1.88809L83.4452 2.16152L83.2041 1.89962L82.8129 1.80902L82.4369 1.88973L82.0811 2.11375V1.86996H81.7051V4.069H82.0794V2.42673L82.3947 2.23565L82.7084 2.15988L82.9647 2.20435L83.0911 2.33119L83.1468 2.54203L83.1653 2.81382V4.07065H83.5413V2.66392L83.5346 2.54697L83.5279 2.4399L83.8482 2.24059L84.1652 2.16317L84.4131 2.20764L84.548 2.33448L84.5952 2.54697L84.6205 2.81547V4.0723H84.9982V2.64416L84.8212 2.02974Z" fill="#282828"/>
<path d="M26.3986 6.88261C25.5252 6.40163 24.1459 6.16113 22.2607 6.16113C21.3282 6.16113 20.3991 6.23196 19.4599 6.37362C18.7669 6.4774 18.6994 6.49716 18.2728 6.58776C17.3926 6.77554 17.2543 7.63374 17.2543 7.63374L16.9711 8.77197C16.8109 9.49839 17.2392 9.47039 17.4179 9.40944C17.8024 9.29743 18.0165 9.18213 18.8023 9.01081C19.5526 8.84445 20.3435 8.71926 20.9707 8.72749C21.8965 8.72749 22.6047 8.82303 23.0768 9.0174C23.5422 9.21507 23.7749 9.5544 23.7749 10.0453L23.7344 10.3648L23.4006 10.5658C22.087 10.6465 21.1377 10.7651 19.986 10.9282C18.8596 11.0814 17.8715 11.3499 17.0503 11.7172C16.1684 12.096 15.5142 12.605 15.0572 13.2524C14.6154 13.903 14.3945 14.6921 14.3945 15.6178C14.3945 16.4892 14.7149 17.209 15.3371 17.7658C15.9627 18.3126 16.7889 18.5795 17.7771 18.5795C18.4026 18.5762 18.8866 18.5284 19.2306 18.4477L20.3519 18.0705L21.3012 17.5566L22.1747 16.9932L22.1865 17.0097L22.0988 17.3721L22.0938 17.3869V17.3902C21.9993 17.8317 22.2725 18.194 22.7126 18.2369L22.721 18.2468H22.7615H24.5371H24.8709L24.9013 18.2336C25.3633 18.1809 25.7967 17.8185 25.8978 17.3869L27.5857 10.2495L27.6734 9.66805L27.7139 9.12283C27.7206 8.11144 27.2738 7.36195 26.3986 6.88261ZM22.6654 14.9078L22.3045 15.3724L21.394 15.8319C20.9657 16.0016 20.5593 16.0873 20.1833 16.0873C19.6133 16.0873 19.1665 16.0065 18.8647 15.8418L18.4178 14.9935C18.4178 14.5339 18.5257 14.1699 18.7567 13.8899L19.7381 13.2376C20.158 13.0992 20.6706 12.9823 21.2641 12.9015C21.7936 12.8373 22.8391 12.7203 22.9756 12.717L23.1358 12.9921C23.1038 13.1486 22.807 14.361 22.6654 14.9078Z" fill="#282828"/>
<path d="M68.4494 6.89323C67.5709 6.41225 66.1933 6.1701 64.3131 6.1701C63.3807 6.1701 62.4499 6.24094 61.514 6.38754C60.8193 6.48637 60.7502 6.50779 60.3219 6.59674C59.4434 6.78287 59.3068 7.64436 59.3068 7.64436L59.0235 8.78094C58.865 9.50736 59.2832 9.47442 59.4788 9.41841C59.8649 9.3064 60.0723 9.19604 60.8514 9.01814C61.5984 8.85342 62.3959 8.73153 63.0249 8.73482C63.9472 8.73482 64.6555 8.83201 65.1259 9.02638C65.5947 9.22404 65.824 9.56666 65.824 10.0526L65.7886 10.3705L65.4581 10.5764C64.131 10.6538 63.18 10.7724 62.0401 10.9355C60.9171 11.0887 59.9256 11.3555 59.1028 11.7245C58.2243 12.105 57.5616 12.614 57.1097 13.263C56.6628 13.9137 56.4453 14.701 56.4453 15.6185C56.4453 16.4965 56.7623 17.2163 57.393 17.7698C58.0219 18.315 58.8397 18.5885 59.8278 18.5885C60.4501 18.5819 60.934 18.5423 61.2797 18.455L62.3976 18.0828L63.3554 17.5688L64.2221 16.9989L64.2373 17.017L64.158 17.3827L64.1496 17.3893L64.153 17.3959C64.0484 17.8373 64.3233 18.203 64.7684 18.2425L64.7718 18.2508H64.8123C65.104 18.2508 66.1123 18.2508 66.5929 18.2508H66.92L66.9554 18.2393C67.4124 18.1849 67.8441 17.8225 67.9402 17.386L69.6331 10.2585L69.7225 9.67373L69.7714 9.12686C69.7731 8.11876 69.3313 7.37257 68.4494 6.89323ZM64.7246 14.9185L64.3486 15.3879L63.4464 15.8442C63.0181 16.0122 62.6101 16.0995 62.2408 16.0995C61.6523 16.0995 61.2173 16.0172 60.9239 15.8524L60.472 15.0074C60.472 14.5462 60.5816 14.1855 60.8025 13.9005C61.0267 13.632 61.369 13.4113 61.794 13.2498C62.2088 13.1115 62.7214 12.9995 63.3183 12.9155C63.8444 12.8512 64.8865 12.731 65.0214 12.7293L65.1849 13.0044C65.1613 13.1609 64.8629 14.3683 64.7246 14.9185Z" fill="#282828"/>
<path d="M57.2786 4.95602C56.9886 4.4075 56.5535 3.9644 56.0038 3.61848C55.4406 3.27586 54.7729 3.03537 53.9922 2.897C53.225 2.76358 52.3093 2.6911 51.269 2.68945L46.4279 2.69275C45.9237 2.70098 45.4397 3.08314 45.3234 3.55259L42.0673 17.3991C41.9493 17.8685 42.273 18.2573 42.7654 18.2573L45.0839 18.254C45.5763 18.2573 46.0805 17.8718 46.1968 17.3974L46.9809 14.0355C47.0956 13.5677 47.593 13.174 48.0938 13.1773H48.7565C51.591 13.1773 53.7881 12.6073 55.3698 11.479C56.9329 10.3375 57.7238 8.84345 57.7238 6.98704C57.7153 6.17826 57.572 5.49466 57.2786 4.95602ZM52.2857 9.48422C51.5876 9.97509 50.613 10.2255 49.3652 10.2255H48.7885C48.2911 10.2304 47.969 9.83508 48.0803 9.36397L48.7818 6.43028C48.8847 5.96082 49.3871 5.56714 49.8879 5.57208L50.6383 5.56714C51.5286 5.57208 52.1964 5.71539 52.6516 6.0053C53.1052 6.29521 53.3194 6.74984 53.3244 7.35272C53.3295 8.27187 52.9805 8.98017 52.2857 9.48422Z" fill="#282828"/>
<path d="M77.1308 3.66298C77.237 3.19022 76.9335 2.80642 76.4361 2.81301H74.362C73.9371 2.81301 73.5543 3.12104 73.3672 3.4999L73.2525 3.67451L73.148 4.12255L70.2494 16.9939L70.155 17.3892L70.1583 17.3991C70.0622 17.8224 70.3286 18.142 70.7401 18.2029L70.7755 18.2507H72.9288C73.3503 18.2507 73.7466 17.9377 73.927 17.5523L74.0383 17.3876L77.1375 3.66462L77.1308 3.66298Z" fill="#282828"/>
<path d="M42.1302 6.33435C41.5822 6.34094 39.3548 6.33435 39.3548 6.33435C38.8556 6.33435 38.2149 6.72804 37.8979 7.1975C37.8979 7.1975 34.5828 12.7552 34.2607 13.3136L33.8763 13.3087L32.8443 7.23538C32.7296 6.75769 32.2187 6.34918 31.583 6.34918L29.509 6.35247C29.0099 6.35247 28.703 6.74122 28.816 7.21561C28.816 7.21561 30.3909 15.9706 30.7062 18.0312C30.8529 19.1678 30.6876 19.3704 30.6876 19.3704L28.6372 22.8592C28.3337 23.3336 28.4973 23.7207 28.9947 23.7207L31.3925 23.7174C31.8916 23.7174 32.5475 23.3336 32.8443 22.8576L42.0679 7.61753C42.0679 7.61918 42.9548 6.31624 42.1302 6.33435Z" fill="#282828"/>
</svg>
